<svg width="24" height="24" viewBox="0 0 24 24" fill="none" xmlns="http://www.w3.org/2000/svg">
<path d="M16 2.15039C16.1974 2.15039 16.3878 2.21866 16.5391 2.34277L16.6006 2.39941C16.76 2.55882 16.8496 2.77457 16.8496 3V4.15039H19C19.7559 4.15039 20.4811 4.4499 21.0156 4.98438C21.5501 5.51885 21.8496 6.24413 21.8496 7V19C21.8496 19.7559 21.5501 20.4811 21.0156 21.0156C20.4811 21.5501 19.7559 21.8496 19 21.8496H5C4.3384 21.8496 3.70058 21.6199 3.19336 21.2041L2.98438 21.0156C2.4499 20.4811 2.15039 19.7559 2.15039 19V7C2.15039 6.3384 2.38011 5.70058 2.7959 5.19336L2.98438 4.98438C3.51885 4.4499 4.24413 4.15039 5 4.15039H7.15039V3C7.15039 2.80259 7.21866 2.61225 7.34277 2.46094L7.39941 2.39941C7.55882 2.24001 7.77457 2.15039 8 2.15039C8.19741 2.15039 8.38775 2.21866 8.53906 2.34277L8.60059 2.39941C8.75999 2.55882 8.84961 2.77457 8.84961 3V4.15039H15.1504V3C15.1504 2.80259 15.2187 2.61225 15.3428 2.46094L15.3994 2.39941C15.5588 2.24001 15.7746 2.15039 16 2.15039ZM3.84961 19C3.84961 19.305 3.97086 19.5978 4.18652 19.8135C4.40219 20.0291 4.695 20.1504 5 20.1504H19C19.305 20.1504 19.5978 20.0291 19.8135 19.8135C20.0291 19.5978 20.1504 19.305 20.1504 19V11.8496H3.84961V19ZM5 5.84961C4.695 5.84961 4.40219 5.97086 4.18652 6.18652C3.97086 6.40219 3.84961 6.695 3.84961 7V10.1504H20.1504V7C20.1504 6.695 20.0291 6.40219 19.8135 6.18652C19.5978 5.97086 19.305 5.84961 19 5.84961H16.8496V7C16.8496 7.22543 16.76 7.44118 16.6006 7.60059C16.4412 7.75999 16.2254 7.84961 16 7.84961C15.7746 7.84961 15.5588 7.75999 15.3994 7.60059C15.24 7.44118 15.1504 7.22543 15.1504 7V5.84961H8.84961V7C8.84961 7.22543 8.75999 7.44118 8.60059 7.60059C8.44118 7.75999 8.22543 7.84961 8 7.84961C7.77457 7.84961 7.55882 7.75999 7.39941 7.60059C7.24001 7.44118 7.15039 7.22543 7.15039 7V5.84961H5Z" fill="#414141" stroke="#F2F2F2" stroke-width="0.3"/>
</svg>
