<svg width="30" height="30" viewBox="0 0 30 30" fill="none" xmlns="http://www.w3.org/2000/svg">
<g clip-path="url(#clip0_1_16349)">
<path d="M5.34373 26.6719C4.68748 26.6719 4.07811 26.5313 3.51561 26.2031C2.67186 25.7344 1.59373 25.7344 0.749981 26.2031C0.468731 26.2969 0.187481 26.25 0.0468562 26.0156C-0.0468938 25.7813 -1.87652e-05 25.5 0.234356 25.3594C1.35936 24.7031 2.81248 24.7031 3.93748 25.3594C4.78123 25.8281 5.85936 25.8281 6.70311 25.3594C7.82811 24.7031 9.28123 24.7031 10.4062 25.3594C11.25 25.8281 12.3281 25.8281 13.1719 25.3594C14.2969 24.7031 15.75 24.7031 16.875 25.3594C17.7187 25.8281 18.7969 25.8281 19.6406 25.3594C20.7656 24.7031 22.2187 24.7031 23.3437 25.3594C24.1875 25.8281 25.2656 25.8281 26.1094 25.3594C27.2344 24.7031 28.6875 24.7031 29.8125 25.3594C30.0469 25.5 30.0937 25.7813 30 26.0156C29.8594 26.25 29.5781 26.2969 29.3437 26.2031C28.5 25.7344 27.4219 25.7344 26.5781 26.2031C25.4531 26.8594 24 26.8594 22.875 26.2031C22.0312 25.7344 20.9531 25.7344 20.1094 26.2031C18.9844 26.8594 17.5312 26.8594 16.4062 26.2031C15.5625 25.7344 14.4844 25.7344 13.6406 26.2031C12.5156 26.8594 11.0625 26.8594 9.93748 26.2031C9.09373 25.7344 8.01561 25.7344 7.17186 26.2031C6.60936 26.5313 5.95311 26.6719 5.34373 26.6719Z" fill="#262626"/>
<path d="M5.34373 29.4375C4.68748 29.4375 4.07811 29.2969 3.51561 28.9687C2.67186 28.5 1.59373 28.5 0.749981 28.9687C0.468731 29.0625 0.187481 29.0156 0.0468562 28.7813C-0.0468938 28.5469 -1.87652e-05 28.2656 0.234356 28.125C1.35936 27.4687 2.81248 27.4687 3.93748 28.125C4.78123 28.5938 5.85936 28.5938 6.70311 28.125C7.82811 27.4687 9.28123 27.4687 10.4062 28.125C11.25 28.5938 12.3281 28.5938 13.1719 28.125C14.2969 27.4687 15.75 27.4687 16.875 28.125C17.7187 28.5938 18.7969 28.5938 19.6406 28.125C20.7656 27.4687 22.2187 27.4687 23.3437 28.125C24.1875 28.5938 25.2656 28.5938 26.1094 28.125C27.2344 27.4687 28.6875 27.4687 29.8125 28.125C30.0469 28.2656 30.0937 28.5469 30 28.7813C29.9062 29.0156 29.5781 29.0625 29.3437 28.9687C28.5 28.5 27.4219 28.5 26.5781 28.9687C25.4531 29.625 24 29.625 22.875 28.9687C22.0312 28.5 20.9531 28.5 20.1094 28.9687C18.9844 29.625 17.5312 29.625 16.4062 28.9687C15.5625 28.5 14.4844 28.5 13.6406 28.9687C12.5156 29.625 11.0625 29.625 9.93748 28.9687C9.09373 28.5 8.01561 28.5 7.17186 28.9687C6.60936 29.2969 5.95311 29.4375 5.34373 29.4375Z" fill="#262626"/>
<path d="M5.1094 3.32815C4.87503 3.32815 4.68753 3.14065 4.64065 2.95315C4.5469 2.34378 3.9844 1.9219 3.32815 2.01565C3.09378 2.06253 2.8594 1.87503 2.81253 1.64065C2.76565 1.40628 2.95315 1.12503 3.18753 1.12503C4.31253 0.937528 5.39065 1.68753 5.53128 2.81253C5.62503 3.0469 5.43753 3.28128 5.20315 3.32815C5.15628 3.32815 5.15628 3.32815 5.1094 3.32815Z" fill="#262626"/>
<path d="M5.10944 3.32815C4.87507 3.32815 4.68757 3.14065 4.64069 2.95315C4.54694 2.39065 4.68757 1.82815 5.01569 1.40628C5.34382 0.984404 5.81257 0.656279 6.37507 0.562529C6.60944 0.515654 6.89069 0.703154 6.89069 0.937529C6.93757 1.1719 6.75007 1.45315 6.51569 1.45315C6.23444 1.50003 5.95319 1.64065 5.76569 1.87503C5.57819 2.1094 5.53132 2.43753 5.57819 2.71878C5.62507 3.0469 5.43757 3.28128 5.20319 3.32815C5.15632 3.32815 5.15632 3.32815 5.10944 3.32815Z" fill="#262626"/>
<path d="M23.9062 23.9062H1.35938C0.5625 23.9062 -0.046875 23.2969 -0.046875 22.5V18.2812C-0.046875 17.4844 0.5625 16.875 1.35938 16.875H28.0781C28.5469 16.875 28.9219 17.1094 29.1562 17.4844C29.3906 17.8594 29.3437 18.375 29.1094 18.75L26.4844 22.5469C25.875 23.3906 24.9375 23.9062 23.9062 23.9062ZM1.35938 17.8125C1.07812 17.8125 0.890625 18 0.890625 18.2812V22.5C0.890625 22.7812 1.07812 22.9688 1.35938 22.9688H23.9062C24.6094 22.9688 25.3125 22.6406 25.6875 22.0312L28.3125 18.2344C28.3594 18.1406 28.3594 18.0469 28.3125 17.9063C28.2656 17.8594 28.2188 17.7656 28.0781 17.7656H1.35938V17.8125Z" fill="#262626"/>
<path d="M24.9375 21.9844C24.8438 21.9844 24.75 21.9375 24.6562 21.8906C24.4219 21.75 24.375 21.4687 24.5156 21.2344L26.3906 18.4688C26.5313 18.2344 26.8125 18.1875 27.0469 18.3281C27.2813 18.4687 27.3281 18.75 27.1875 18.9844L25.3125 21.75C25.2188 21.8906 25.0781 21.9844 24.9375 21.9844Z" fill="#262626"/>
<path d="M24.2813 17.7187H1.96878C1.82815 17.7187 1.68753 17.625 1.59378 17.5313C1.50003 17.3906 1.50003 17.25 1.5469 17.1094L3.2344 13.0781C3.6094 12.2812 4.64065 11.7188 5.71878 11.7188H20.5313C21.6563 11.7188 22.6875 12.2812 23.0157 13.0781L24.7032 17.1094C24.75 17.25 24.75 17.4375 24.6563 17.5313C24.5625 17.625 24.4219 17.7187 24.2813 17.7187ZM2.6719 16.7812H23.5782L22.1719 13.4063C21.9844 12.9375 21.2813 12.6094 20.5313 12.6094H5.71878C4.87503 12.6094 4.26565 13.0313 4.07815 13.4063L2.6719 16.7812Z" fill="#262626"/>
<path d="M20.3437 12.4219H6.14058C5.99996 12.4219 5.85933 12.375 5.76558 12.2344C5.67183 12.0938 5.62496 12 5.67183 11.8594L6.42183 8.25C6.60933 7.21875 7.49996 6.42188 8.57808 6.42188H17.8593C18.9375 6.42188 19.8281 7.21875 20.0156 8.25L20.7656 11.7656C20.8125 11.8125 20.8125 11.9062 20.8125 11.9531C20.8125 12.2344 20.625 12.4219 20.3437 12.4219ZM6.70308 11.4844H19.7343L19.0781 8.4375C18.9843 7.78125 18.4687 7.35938 17.8593 7.35938H8.57808C7.96871 7.35938 7.45308 7.82813 7.35933 8.4375L6.70308 11.4844Z" fill="#262626"/>
<path d="M19.8281 9.9375H16.125C15.8437 9.9375 15.6562 9.75 15.6562 9.46875C15.6562 9.1875 15.8437 9 16.125 9H19.8281C20.1094 9 20.2969 9.1875 20.2969 9.46875C20.2969 9.75 20.1094 9.9375 19.8281 9.9375Z" fill="#262626"/>
<path d="M23.1563 15.1406H15.9844C15.7031 15.1406 15.5156 14.9531 15.5156 14.6719C15.5156 14.3906 15.7031 14.2031 15.9844 14.2031H23.1563C23.4375 14.2031 23.625 14.3906 23.625 14.6719C23.625 14.9531 23.4375 15.1406 23.1563 15.1406Z" fill="#262626"/>
<path d="M14.1562 7.40625H10.8281C10.6875 7.40625 10.5469 7.35938 10.5 7.26562C10.4062 7.17188 10.3594 7.03125 10.3594 6.89062L10.7344 3.28125C10.7344 2.67188 11.25 2.20312 11.9062 2.20312H13.0781C13.6875 2.20312 14.1562 2.67188 14.25 3.28125L14.625 6.89062C14.625 7.03125 14.5781 7.17188 14.4844 7.26562C14.4375 7.35938 14.2969 7.40625 14.1562 7.40625ZM11.3438 6.46875H13.6406L13.3125 3.375C13.3125 3.28125 13.2187 3.14062 13.0781 3.14062H11.9062C11.8125 3.14062 11.6719 3.23438 11.6719 3.32812V3.375L11.3438 6.46875Z" fill="#262626"/>
<path d="M5.90625 21.9375C5.0625 21.9375 4.35938 21.2344 4.35938 20.3906C4.35938 19.5469 5.0625 18.8438 5.90625 18.8438C6.75 18.8438 7.45312 19.5469 7.45312 20.3906C7.45312 21.2344 6.75 21.9375 5.90625 21.9375ZM5.90625 19.7812C5.57813 19.7812 5.29688 20.0625 5.29688 20.3906C5.29688 20.7187 5.57813 21 5.90625 21C6.23438 21 6.51562 20.7187 6.51562 20.3906C6.51562 20.0625 6.23438 19.7812 5.90625 19.7812Z" fill="#262626"/>
<path d="M10.5 21.9375C9.65625 21.9375 8.95312 21.2344 8.95312 20.3906C8.95312 19.5469 9.65625 18.8438 10.5 18.8438C11.3437 18.8438 12.0469 19.5469 12.0469 20.3906C12.0469 21.2344 11.3437 21.9375 10.5 21.9375ZM10.5 19.7812C10.1719 19.7812 9.89062 20.0625 9.89062 20.3906C9.89062 20.7187 10.1719 21 10.5 21C10.8281 21 11.1094 20.7187 11.1094 20.3906C11.1094 20.0625 10.8281 19.7812 10.5 19.7812Z" fill="#262626"/>
<path d="M15.0469 21.9375C14.2031 21.9375 13.5 21.2344 13.5 20.3906C13.5 19.5469 14.2031 18.8438 15.0469 18.8438C15.8906 18.8438 16.5938 19.5469 16.5938 20.3906C16.5938 21.2344 15.8906 21.9375 15.0469 21.9375ZM15.0469 19.7812C14.7187 19.7812 14.4375 20.0625 14.4375 20.3906C14.4375 20.7187 14.7187 21 15.0469 21C15.375 21 15.6563 20.7187 15.6563 20.3906C15.6563 20.0625 15.375 19.7812 15.0469 19.7812Z" fill="#262626"/>
<path d="M19.5937 21.9375C18.75 21.9375 18.0469 21.2344 18.0469 20.3906C18.0469 19.5469 18.75 18.8438 19.5937 18.8438C20.4375 18.8438 21.1406 19.5469 21.1406 20.3906C21.1406 21.2344 20.4375 21.9375 19.5937 21.9375ZM19.5937 19.7812C19.2656 19.7812 18.9844 20.0625 18.9844 20.3906C18.9844 20.7187 19.2656 21 19.5937 21C19.9219 21 20.2031 20.7187 20.2031 20.3906C20.2031 20.0625 19.9219 19.7812 19.5937 19.7812Z" fill="#262626"/>
</g>
<defs>
<clipPath id="clip0_1_16349">
<rect width="30" height="30" fill="white"/>
</clipPath>
</defs>
</svg>
