<svg width="121" height="104" viewBox="0 0 121 104" fill="none" xmlns="http://www.w3.org/2000/svg">
<path d="M88.644 52C88.644 71.801 72.4478 87.8526 52.4684 87.8526C32.489 87.8526 16.2929 71.801 16.2929 52C16.2929 32.199 32.489 16.1474 52.4684 16.1474C72.4478 16.1474 88.644 32.199 88.644 52ZM104.937 52C104.937 23.2808 81.4464 0 52.4684 0C23.4905 0 0 23.2808 0 52C0 80.7192 23.4905 104 52.4684 104C81.4464 104 104.937 80.7192 104.937 52Z" fill="#262626"/>
<path d="M52.4684 102.624C24.3032 102.624 1.38965 79.9148 1.38965 51.9999C1.38965 24.085 24.3032 1.37598 52.4684 1.37598C80.6335 1.37598 103.548 24.085 103.548 51.9999C103.548 79.9148 80.6348 102.624 52.4684 102.624ZM52.4684 14.7712C31.7561 14.7712 14.9044 31.4725 14.9044 52.0011C14.9044 72.5297 31.7561 89.2297 52.4684 89.2297C73.1807 89.2297 90.0336 72.5285 90.0336 52.0011C90.0336 31.4737 73.1819 14.7712 52.4684 14.7712Z" fill="url(#paint0_linear_1_7688)"/>
<path style="mix-blend-mode:screen" d="M52.4684 1.37598C24.3032 1.37598 1.38965 24.085 1.38965 51.9999C1.38965 59.6571 3.12283 66.9187 6.20701 73.4311C8.90535 70.3301 12.3536 66.8252 16.6521 63.2219C15.52 59.6786 14.9044 55.91 14.9044 51.9999C14.9044 31.4713 31.7561 14.77 52.4684 14.77C67.374 14.77 80.2792 23.4197 86.3447 35.9196C90.8742 35.4461 95.6166 35.132 100.575 34.9954C93.5097 15.4221 74.6164 1.37598 52.4684 1.37598Z" fill="url(#paint1_linear_1_7688)"/>
<path d="M24.0154 49.1927C29.4871 53.291 31.5783 53.8688 36.1561 60.0564C43.6404 70.172 42.5386 74.3578 44.7592 76.2841C46.9798 78.2092 57.1551 79.7675 64.0927 70.9668C71.0303 62.166 81.8539 37.87 95.7291 23.2928C109.605 8.71564 116.08 4.49868 120.243 2.2979C124.406 0.0971241 111.215 0.565809 85.2755 21.0009C67.2374 35.2113 54.4713 54.8313 54.4713 54.8313C54.4713 54.8313 50.8634 44.1043 42.8155 36.9542C34.7677 29.8028 14.9249 42.3866 24.0142 49.1939L24.0154 49.1927Z" fill="#262626"/>
<defs>
<linearGradient id="paint0_linear_1_7688" x1="79.6466" y1="101.149" x2="27.4045" y2="4.96428" gradientUnits="userSpaceOnUse">
<stop stop-color="#D8D8D8"/>
<stop offset="1" stop-color="#909090"/>
</linearGradient>
<linearGradient id="paint1_linear_1_7688" x1="59.3527" y1="67.6343" x2="33.5346" y2="7.93443" gradientUnits="userSpaceOnUse">
<stop stop-color="#C4C4C4"/>
<stop offset="1"/>
</linearGradient>
</defs>
</svg>
