<svg width="30" height="30" viewBox="0 0 30 30" fill="none" xmlns="http://www.w3.org/2000/svg">
<g clip-path="url(#clip0_1_16307)">
<path d="M26.6642 20.9139C26.5553 20.8048 26.4041 20.7422 26.25 20.7422C26.0959 20.7422 25.9447 20.8048 25.8357 20.9139C25.7268 21.0229 25.6641 21.1734 25.6641 21.3281C25.6641 21.4822 25.7267 21.6334 25.8357 21.7423C25.9447 21.8513 26.0959 21.9141 26.25 21.9141C26.4041 21.9141 26.5553 21.8514 26.6642 21.7423C26.7732 21.6334 26.8359 21.4822 26.8359 21.3281C26.8359 21.174 26.7732 21.0229 26.6642 20.9139Z" fill="#262626"/>
<path d="M29.4141 28.8281H26.8359V23.3789C26.8359 23.0554 26.5736 22.793 26.25 22.793C25.9264 22.793 25.6641 23.0554 25.6641 23.3789V28.8281H7.14844V23.3203C7.14844 22.9968 6.88605 22.7344 6.5625 22.7344C6.23895 22.7344 5.97656 22.9968 5.97656 23.3203V28.8281H4.33594V13.4181L15 5.09269L25.6641 13.4181V18.9844C25.6641 19.3079 25.9264 19.5703 26.25 19.5703C26.5736 19.5703 26.8359 19.3079 26.8359 18.9844V14.333L26.9384 14.413C27.0448 14.4961 27.172 14.5371 27.2987 14.5371C27.4494 14.5371 27.5995 14.4791 27.7132 14.3654L29.8266 12.252C29.9453 12.1333 30.0074 11.9693 29.9971 11.8017C29.9868 11.6342 29.9052 11.4791 29.7728 11.3758L26.25 8.62549V2.75392C26.25 2.43031 25.9876 2.16799 25.6641 2.16799H22.2681C21.9445 2.16799 21.6821 2.43031 21.6821 2.75392V5.05935L15.3605 0.124119C15.1487 -0.0412915 14.8513 -0.0412915 14.6394 0.124119L0.227109 11.3758C0.0947461 11.4791 0.013125 11.6342 0.0028125 11.8017C-0.00744141 11.9693 0.054668 12.1332 0.17332 12.252L2.28674 14.3654C2.49592 14.5746 2.82838 14.5951 3.06164 14.413L3.16406 14.333V28.8281H0.585938C0.262383 28.8281 0 29.0905 0 29.4141C0 29.7376 0.262383 30 0.585938 30H29.4141C29.7376 30 30 29.7376 30 29.4141C30 29.0905 29.7376 28.8281 29.4141 28.8281ZM22.854 3.33986H25.0781V7.7106L22.854 5.97424V3.33986ZM2.74898 13.1704L1.47047 11.8918L15 1.32928L28.5295 11.8918L27.251 13.1704L15.3605 3.88748C15.2546 3.80474 15.1273 3.76338 15 3.76338C14.8727 3.76338 14.7454 3.80474 14.6395 3.88748L2.74898 13.1704Z" fill="#262626"/>
<path d="M20.625 12.7734H9.375C9.05145 12.7734 8.78906 13.0358 8.78906 13.3594V24.6094C8.78906 24.9329 9.05145 25.1953 9.375 25.1953H20.625C20.9486 25.1953 21.2109 24.9329 21.2109 24.6094V13.3594C21.2109 13.0358 20.9486 12.7734 20.625 12.7734ZM14.4141 24.0234H9.96094V19.5703H14.4141V24.0234ZM14.4141 18.3984H9.96094V13.9453H14.4141V18.3984ZM20.0391 24.0234H15.5859V19.5703H20.0391V24.0234ZM20.0391 18.3984H15.5859V13.9453H20.0391V18.3984Z" fill="#262626"/>
<path d="M6.5625 20.4203C6.23895 20.4203 5.97656 20.6826 5.97656 21.0062V21.0157C5.97656 21.3392 6.23895 21.6016 6.5625 21.6016C6.88605 21.6016 7.14844 21.3392 7.14844 21.0157V21.0062C7.14844 20.6827 6.88605 20.4203 6.5625 20.4203Z" fill="#262626"/>
</g>
<defs>
<clipPath id="clip0_1_16307">
<rect width="30" height="30" fill="white"/>
</clipPath>
</defs>
</svg>
