<svg width="35" height="35" viewBox="0 0 35 35" fill="none" xmlns="http://www.w3.org/2000/svg">
<rect width="35" height="35" rx="10" fill="#2B4C62"/>
<path d="M18 27C16.7613 27 15.5947 26.7633 14.5 26.29C13.4053 25.816 12.452 25.1727 11.64 24.36C10.828 23.5473 10.1847 22.594 9.71001 21.5C9.23534 20.406 8.99867 19.2393 9.00001 18C9.00001 16.7573 9.23667 15.5897 9.71001 14.497C10.184 13.4037 10.8273 12.4513 11.64 11.64C12.4527 10.8287 13.406 10.1853 14.5 9.71C15.5947 9.23667 16.7613 9 18 9C19.2427 9 20.4103 9.23667 21.503 9.71C22.5963 10.184 23.549 10.8273 24.361 11.64C25.173 12.4527 25.816 13.405 26.29 14.497C26.7633 15.5903 27 16.758 27 18C27 19.2387 26.7633 20.4053 26.29 21.5C25.816 22.5947 25.1727 23.548 24.36 24.36C23.5473 25.172 22.595 25.8153 21.503 26.29C20.411 26.7647 19.2433 27.0013 18 27ZM18 26.008C18.5867 25.254 19.0707 24.5137 19.452 23.787C19.8327 23.0603 20.1423 22.247 20.381 21.347H15.619C15.8837 22.2977 16.1997 23.1363 16.567 23.863C16.935 24.5897 17.4127 25.3047 18 26.008ZM16.727 25.858C16.2603 25.308 15.8343 24.628 15.449 23.818C15.0637 23.0087 14.777 22.1847 14.589 21.346H10.754C11.3273 22.5893 12.1397 23.6093 13.191 24.406C14.243 25.202 15.4217 25.686 16.727 25.858ZM19.273 25.858C20.5783 25.686 21.757 25.202 22.809 24.406C23.8603 23.6093 24.6727 22.5893 25.246 21.346H21.412C21.1587 22.1973 20.8397 23.0277 20.455 23.837C20.0697 24.647 19.6757 25.3213 19.273 25.858ZM10.346 20.347H14.381C14.305 19.9363 14.2517 19.5363 14.221 19.147C14.189 18.7583 14.173 18.376 14.173 18C14.173 17.624 14.1887 17.2417 14.22 16.853C14.2513 16.4643 14.3047 16.0643 14.38 15.653H10.347C10.2383 15.9997 10.1533 16.3773 10.092 16.786C10.0307 17.194 10 17.5987 10 18C10 18.4013 10.0303 18.8063 10.091 19.215C10.1517 19.6237 10.2367 20.0007 10.346 20.346M15.381 20.346H20.619C20.695 19.936 20.7483 19.5427 20.779 19.166C20.811 18.79 20.827 18.4013 20.827 18C20.827 17.5987 20.8113 17.21 20.78 16.834C20.7487 16.458 20.6953 16.0647 20.62 15.654H15.38C15.3047 16.064 15.2513 16.4573 15.22 16.834C15.1887 17.21 15.173 17.5987 15.173 18C15.173 18.4013 15.1887 18.79 15.22 19.166C15.2513 19.542 15.3057 19.9353 15.381 20.346ZM21.62 20.346H25.654C25.7627 20 25.8477 19.623 25.909 19.215C25.9697 18.8063 26 18.4013 26 18C26 17.5987 25.9697 17.1937 25.909 16.785C25.8483 16.3763 25.7633 15.9993 25.654 15.654H21.619C21.695 16.064 21.7483 16.4637 21.779 16.853C21.811 17.2423 21.827 17.6247 21.827 18C21.827 18.3753 21.8113 18.7577 21.78 19.147C21.7487 19.5363 21.6953 19.9363 21.62 20.347M21.412 14.654H25.246C24.66 13.3847 23.8573 12.3647 22.838 11.594C21.8187 10.8233 20.6303 10.333 19.273 10.123C19.7397 10.737 20.1593 11.4393 20.532 12.23C20.9047 13.02 21.198 13.828 21.412 14.654ZM15.619 14.654H20.381C20.117 13.7153 19.7913 12.8667 19.404 12.108C19.0167 11.3493 18.5487 10.644 18 9.992C17.4513 10.6433 16.9833 11.3487 16.596 12.108C16.2087 12.8673 15.8823 13.716 15.619 14.654ZM10.755 14.654H14.589C14.803 13.8287 15.0963 13.0207 15.469 12.23C15.8417 11.4393 16.2613 10.737 16.728 10.123C15.3587 10.3337 14.1673 10.827 13.154 11.603C12.1407 12.3803 11.3407 13.397 10.754 14.653" fill="white"/>
</svg>
