<svg width="83" height="23" viewBox="0 0 83 23" fill="none" xmlns="http://www.w3.org/2000/svg">
<g clip-path="url(#clip0_1_23399)">
<path d="M0 21.9166C1.13599 21.9166 1.89595 21.1598 1.89595 20.0206V2.35037C1.89595 1.21438 1.13757 0.45442 0 0.45442V0.138428H5.68785V0.45442C4.55186 0.45442 3.7919 1.2128 3.7919 2.35037V20.0238C3.7919 21.1598 4.55028 21.9197 5.68785 21.9197H10.4277C14.1959 21.9197 15.1676 18.1278 15.1676 18.1278L14.5356 22.2357H0V21.9166Z" fill="#262626"/>
<path d="M18.5171 0.315347V-0.000644644H24.2049V0.315347C23.069 0.315347 22.309 1.07215 22.309 2.2113V13.8572C22.309 19.1895 25.3394 21.2735 29.1028 21.2735C32.8663 21.2735 35.8872 19.1895 35.8872 13.8572V2.2034C35.8872 1.06741 35.1304 0.307447 33.9912 0.307447V-0.00854492H38.0991V0.307447C36.9615 0.307447 36.2031 1.06425 36.2031 2.2034V13.8493C36.2031 19.782 32.6688 22.37 28.3128 22.37C23.9569 22.37 20.4241 19.782 20.4241 13.8493V2.2034C20.4241 1.06741 19.6657 0.307447 18.5281 0.307447" fill="#262626"/>
<path d="M63.1194 0.455884V0.139893H69.2417V0.455884C68.1057 0.455884 67.9778 0.929873 68.5466 1.90787L74.0069 10.8394L79.4672 1.90787C80.0344 0.929873 79.9412 0.455884 78.8036 0.455884V0.139893H83.0016V0.455884C81.8656 0.455884 80.4737 0.929873 79.908 1.90787L74.2281 11.187V20.0237C74.2281 21.1597 74.9849 21.9196 76.124 21.9196V22.2356H70.4441V21.9196C71.5801 21.9196 72.34 21.1628 72.34 20.0237V11.8806L66.2493 1.90787C65.6505 0.929873 64.2617 0.455884 63.1257 0.455884" fill="#262626"/>
<path d="M56.2796 8.69414C57.512 7.81094 59.2152 6.04296 59.2152 4.40139C59.2152 1.34101 56.88 0.135498 53.5352 0.135498H44.0665V0.45149C45.2025 0.45149 45.9625 1.20987 45.9625 2.34744V14.2651C45.2799 14.6996 44.4236 15.2478 44.1534 15.4295C42.8104 16.338 41.4548 17.9322 41.4548 19.4426C41.4548 20.4601 41.8467 22.1459 44.3983 22.2217H53.8512C58.1439 22.2217 61.7415 19.4442 61.7415 15.1214C61.7415 10.8919 58.1755 9.12546 56.2812 8.68307M47.8552 2.33954C47.8552 1.20355 48.6136 0.44359 49.7512 0.44359H53.5431C56.071 0.44359 57.335 2.18154 57.335 4.39349C57.335 6.66547 55.439 8.87583 53.4846 10.0118L47.8663 13.2018L47.8552 2.33954ZM44.422 21.9152C42.2353 21.8552 41.7645 20.5486 41.7645 19.4458C41.7645 18.0491 43.0522 16.5529 44.3272 15.6902C44.5689 15.5322 45.3131 15.0582 45.9609 14.6379V20.024C45.9609 21.1505 45.5374 21.9026 44.422 21.92M53.8496 21.92H49.7417C48.6057 21.92 47.8458 21.1632 47.8458 20.024V13.5983C48.394 13.3203 48.5725 13.2065 49.5505 12.6393L53.4641 10.3973C54.2541 9.92334 54.5701 9.73533 55.5781 9.10335C57.0617 9.51414 59.844 11.5965 59.844 15.1325C59.844 18.6084 57.316 21.9168 53.848 21.9168" fill="#262626"/>
<path d="M28.7913 13.2092C28.7913 12.8243 28.7154 12.4431 28.568 12.0875C28.4206 11.7319 28.2046 11.4088 27.9322 11.1368C27.6599 10.8647 27.3366 10.6491 26.9808 10.502C26.6251 10.355 26.2438 10.2795 25.8589 10.28C26.2435 10.2802 26.6244 10.2046 26.9797 10.0576C27.3351 9.91052 27.658 9.69491 27.9301 9.42303C28.2021 9.15115 28.4179 8.82833 28.5651 8.47303C28.7124 8.11773 28.7881 7.73689 28.7881 7.35229C28.7879 7.73682 28.8635 8.11762 29.0106 8.47291C29.1576 8.8282 29.3733 9.15103 29.6452 9.42293C29.9171 9.69483 30.2399 9.91047 30.5952 10.0575C30.9505 10.2046 31.3313 10.2802 31.7158 10.28C31.3312 10.28 30.9504 10.3557 30.5951 10.503C30.2398 10.6502 29.9169 10.866 29.6451 11.138C29.3732 11.41 29.1576 11.733 29.0105 12.0883C28.8635 12.4437 28.7879 12.8246 28.7881 13.2092" fill="#262626"/>
</g>
<defs>
<clipPath id="clip0_1_23399">
<rect width="83" height="22.3754" fill="white" transform="translate(0 -0.000488281)"/>
</clipPath>
</defs>
</svg>
