<svg width="40" height="40" viewBox="0 0 40 40" fill="none" xmlns="http://www.w3.org/2000/svg">
<path d="M21.417 5.25V8.08301H8.08301V31.917H31.917V18.583H34.75V31.667C34.7499 32.4106 34.5208 33.0561 34.0576 33.6123L33.8447 33.8447C33.2392 34.4513 32.5178 34.751 31.667 34.75H8.33301C7.58955 34.7499 6.9449 34.5205 6.38965 34.0576L6.15723 33.8447C5.62726 33.3148 5.33105 32.6961 5.26465 31.9795L5.25 31.666V8.33301C5.25007 7.58967 5.47964 6.94492 5.94336 6.38965L6.15625 6.15723C6.68739 5.62699 7.30643 5.331 8.02148 5.26465L8.33398 5.25H21.417ZM29.499 28.083H10.5L15 22.083L18.5498 26.8164L18.75 27.083L18.9502 26.8164L23.749 20.417L29.499 28.083ZM31.417 5.25V8.58301H34.75V11.417H31.417V14.75H28.583V11.417H25.25V8.58301H28.583V5.25H31.417Z" fill="#ACACAC" stroke="white" stroke-width="0.5"/>
</svg>
