<svg width="131" height="130" viewBox="0 0 131 130" fill="none" xmlns="http://www.w3.org/2000/svg">
<rect x="0.5" width="130" height="130" fill="white"/>
<path d="M93 68.4375V106.25C93 106.888 92.8222 107.514 92.4866 108.057C92.151 108.6 91.6708 109.039 91.0998 109.325C90.5288 109.61 89.8896 109.731 89.2538 109.674C88.618 109.616 88.0107 109.383 87.5 109L65.5 92.5L43.5 109C42.9893 109.383 42.382 109.616 41.7462 109.674C41.1104 109.731 40.4712 109.61 39.9002 109.325C39.3292 109.039 38.849 108.6 38.5134 108.057C38.1778 107.514 38 106.888 38 106.25V28.9062C38 26.627 38.9054 24.4412 40.5171 22.8296C42.1287 21.2179 44.3145 20.3125 46.5938 20.3125H84.4062C85.5348 20.3125 86.6523 20.5348 87.6949 20.9667C88.7376 21.3985 89.6849 22.0315 90.4829 22.8296C91.281 23.6276 91.914 24.5749 92.3458 25.6176C92.7777 26.6602 93 27.7777 93 28.9062V68.4375Z" fill="white"/>
<path d="M43.1562 106.25V28.9062C43.1562 26.627 44.0617 24.4412 45.6733 22.8296C47.2849 21.2179 49.4708 20.3125 51.75 20.3125H46.5938C44.3145 20.3125 42.1287 21.2179 40.5171 22.8296C38.9054 24.4412 38 26.627 38 28.9062V106.25C38 106.888 38.1778 107.514 38.5134 108.057C38.849 108.6 39.3292 109.039 39.9002 109.325C40.4712 109.61 41.1104 109.731 41.7462 109.674C42.382 109.616 42.9893 109.383 43.5 109L44.0844 108.57C43.4949 107.941 43.1636 107.112 43.1562 106.25Z" fill="#262626"/>
<g opacity="0.3">
<path d="M93.0004 65V106.25C93.0004 106.888 92.8226 107.514 92.487 108.057C92.1514 108.6 91.6712 109.039 91.1002 109.325C90.5292 109.61 89.89 109.731 89.2542 109.674C88.6184 109.616 88.0111 109.383 87.5004 109L86.916 108.57C87.5055 107.941 87.8368 107.112 87.8441 106.25V65H93.0004Z" fill="#262626"/>
</g>
<path d="M108.262 23.5435C113.006 28.1154 112.215 35.1795 109.07 40.9717C101.594 54.7217 89.6826 57.592 89.6826 57.592C89.6826 57.592 79.0435 54.7732 71.2232 40.9373C67.9748 35.1967 66.9607 28.081 71.7216 23.5092C76.4826 18.9373 85.0592 20.3123 89.167 27.7201C89.167 27.7201 89.9576 29.3357 89.992 29.3529C90.0263 29.3701 90.7998 27.7201 90.7998 27.7201C94.9076 20.3123 103.501 18.9717 108.262 23.5435Z" fill="#262626"/>
<path d="M89.5625 111.406C88.4468 111.406 87.3613 111.044 86.4688 110.375L65.5 94.6484L44.5312 110.375C43.7649 110.948 42.8543 111.297 41.9011 111.382C40.948 111.467 39.99 111.285 39.1344 110.856C38.2782 110.429 37.5579 109.772 37.054 108.958C36.5501 108.145 36.2826 107.207 36.2812 106.25V28.9062C36.2812 26.1712 37.3677 23.5482 39.3017 21.6142C41.2357 19.6802 43.8587 18.5938 46.5938 18.5938H63.7812C64.2371 18.5938 64.6743 18.7748 64.9966 19.0972C65.3189 19.4195 65.5 19.8567 65.5 20.3125C65.5 20.7683 65.3189 21.2055 64.9966 21.5278C64.6743 21.8502 64.2371 22.0312 63.7812 22.0312H46.5938C44.7704 22.0312 43.0217 22.7556 41.7324 24.0449C40.4431 25.3342 39.7188 27.0829 39.7188 28.9062V106.25C39.7188 106.569 39.8076 106.882 39.9754 107.154C40.1433 107.425 40.3834 107.645 40.6689 107.787C40.9543 107.93 41.274 107.99 41.5919 107.962C41.9098 107.933 42.2134 107.817 42.4688 107.625L64.4688 91.125C64.7663 90.9019 65.1281 90.7812 65.5 90.7812C65.8719 90.7812 66.2337 90.9019 66.5312 91.125L88.5313 107.625C88.7866 107.817 89.0902 107.933 89.4081 107.962C89.726 107.99 90.0457 107.93 90.3311 107.787C90.6166 107.645 90.8567 107.425 91.0246 107.154C91.1924 106.882 91.2812 106.569 91.2812 106.25V68.4375C91.2812 67.9817 91.4623 67.5445 91.7847 67.2222C92.107 66.8998 92.5442 66.7187 93 66.7187C93.4558 66.7187 93.893 66.8998 94.2153 67.2222C94.5377 67.5445 94.7188 67.9817 94.7188 68.4375V106.25C94.7174 107.207 94.4499 108.145 93.946 108.958C93.4421 109.772 92.7218 110.429 91.8656 110.856C91.1525 111.22 90.363 111.409 89.5625 111.406Z" fill="#414141"/>
<path d="M89.6827 59.3113C89.5399 59.3281 89.3957 59.3281 89.253 59.3113C88.7889 59.191 77.8233 56.1488 69.728 41.8832C66.4108 36.005 64.8639 27.8066 70.5186 22.3582C71.8023 21.1418 73.35 20.2389 75.0406 19.7201C76.7312 19.2013 78.5189 19.0806 80.2639 19.3675C82.2471 19.6986 84.1383 20.4436 85.8145 21.5541C87.4906 22.6646 88.914 24.1157 89.9921 25.8128C91.0613 24.1066 92.4792 22.6457 94.1528 21.526C95.8264 20.4063 97.7178 19.6532 99.703 19.316C101.448 19.029 103.236 19.1497 104.926 19.6685C106.617 20.1873 108.165 21.0902 109.448 22.3066C114.192 26.8785 114.605 34.3378 110.583 41.7972C102.831 56.1144 90.6108 59.1394 90.078 59.2597C89.9492 59.2949 89.8162 59.3122 89.6827 59.3113ZM78.4249 22.616C76.3732 22.5878 74.3924 23.3654 72.9077 24.7816C68.6624 28.855 70.0374 35.3863 72.7186 40.13C79.1983 51.5597 87.7405 55.1003 89.7171 55.805C97.4376 53.0446 103.821 47.4538 107.575 40.1644C110.136 35.4207 111.339 28.9066 107.059 24.6957C106.152 23.8419 105.058 23.2111 103.865 22.8531C102.672 22.4951 101.412 22.4198 100.184 22.6332C98.5074 22.9317 96.9218 23.6127 95.5507 24.6231C94.1795 25.6336 93.0597 26.9464 92.278 28.4597C91.4014 30.1785 91.4014 30.1785 91.1952 30.4707C90.8779 30.7945 90.4454 30.9798 89.9921 30.9863C89.7642 30.9921 89.5374 30.9526 89.325 30.87C89.1125 30.7874 88.9186 30.6633 88.7546 30.505C88.5139 30.2816 88.5139 30.2816 87.5858 28.391C86.7971 26.9115 85.6811 25.6316 84.3229 24.6487C82.9647 23.6658 81.4001 23.0059 79.7483 22.7191C79.3104 22.6513 78.868 22.6168 78.4249 22.616Z" fill="#414141"/>
<path d="M77.5312 68.4375H74.0938C73.6379 68.4375 73.2007 68.2564 72.8784 67.9341C72.5561 67.6118 72.375 67.1746 72.375 66.7188C72.375 66.2629 72.5561 65.8257 72.8784 65.5034C73.2007 65.1811 73.6379 65 74.0938 65H77.5312C77.9871 65 78.4243 65.1811 78.7466 65.5034C79.0689 65.8257 79.25 66.2629 79.25 66.7188C79.25 67.1746 79.0689 67.6118 78.7466 67.9341C78.4243 68.2564 77.9871 68.4375 77.5312 68.4375Z" fill="#414141"/>
<path d="M74.0938 68.4375H53.4688C53.0129 68.4375 52.5757 68.2564 52.2534 67.9341C51.9311 67.6118 51.75 67.1746 51.75 66.7188C51.75 66.2629 51.9311 65.8257 52.2534 65.5034C52.5757 65.1811 53.0129 65 53.4688 65H74.0938C74.5496 65 74.9868 65.1811 75.3091 65.5034C75.6314 65.8257 75.8125 66.2629 75.8125 66.7188C75.8125 67.1746 75.6314 67.6118 75.3091 67.9341C74.9868 68.2564 74.5496 68.4375 74.0938 68.4375Z" fill="#414141"/>
<path d="M77.5312 78.75H74.0938C73.6379 78.75 73.2007 78.5689 72.8784 78.2466C72.5561 77.9243 72.375 77.4871 72.375 77.0312C72.375 76.5754 72.5561 76.1382 72.8784 75.8159C73.2007 75.4936 73.6379 75.3125 74.0938 75.3125H77.5312C77.9871 75.3125 78.4243 75.4936 78.7466 75.8159C79.0689 76.1382 79.25 76.5754 79.25 77.0312C79.25 77.4871 79.0689 77.9243 78.7466 78.2466C78.4243 78.5689 77.9871 78.75 77.5312 78.75Z" fill="#414141"/>
<path d="M74.0938 78.75H60.3438C59.8879 78.75 59.4507 78.5689 59.1284 78.2466C58.8061 77.9243 58.625 77.4871 58.625 77.0312C58.625 76.5754 58.8061 76.1382 59.1284 75.8159C59.4507 75.4936 59.8879 75.3125 60.3438 75.3125H74.0938C74.5496 75.3125 74.9868 75.4936 75.3091 75.8159C75.6314 76.1382 75.8125 76.5754 75.8125 77.0312C75.8125 77.4871 75.6314 77.9243 75.3091 78.2466C74.9868 78.5689 74.5496 78.75 74.0938 78.75Z" fill="#414141"/>
</svg>
