<svg width="102" height="111" viewBox="0 0 102 111" fill="none" xmlns="http://www.w3.org/2000/svg">
<g clip-path="url(#clip0_749_1070)">
<path d="M100.614 76.2324C89.6233 68.6261 81.0822 57.4654 76.6523 44.7949C73.299 35.2042 70.2767 24.7555 62.3747 17.8446C58.0515 14.0636 52.6476 11.6296 47.0255 10.6239C44.2179 10.1216 41.5428 10.317 38.744 10.222C36.3656 10.1412 36.2354 7.81096 35.3109 6.09278C33.3506 2.4494 29.0625 0.651714 25.2542 2.56479C21.0556 4.67404 20.4907 9.65356 22.1437 13.6627C22.531 14.6018 22.2525 15.7077 21.4213 16.2854C14.3843 21.1769 9.13047 28.894 7.65306 37.4072C5.85176 47.7867 10.0537 57.8136 13.4614 67.3849C17.9646 80.0338 18.3293 94.1217 14.5628 107.006C13.2111 111.632 22.4658 109.008 24.5467 108.475C40.6501 104.346 79.5312 90.4716 94.3896 83.4409C97.8355 81.8105 103.746 78.3997 100.614 76.2321L100.614 76.2324Z" fill="#DADADA"/>
<path d="M66.2734 9.31744C76.4055 11.5514 83.4619 21.077 82.5184 31.6248C82.44 32.4625 83.7117 32.6032 83.7891 31.742C84.7796 20.7251 77.4777 10.4705 66.5463 8.06185C65.7179 7.88012 65.4507 9.13752 66.2734 9.31744Z" fill="#414141"/>
<path d="M80.0317 7.20106C83.8171 9.02585 86.6432 12.7376 87.4067 16.8898C87.5634 17.7241 88.8156 17.4936 88.664 16.6554C87.8275 12.1065 84.7304 8.03975 80.5838 6.04253C79.8201 5.67623 79.2716 6.83657 80.0317 7.20106Z" fill="#414141"/>
<path d="M97.7656 97.0113L89.3594 93.3899L88.8173 88.2702C88.7591 87.7392 88.1228 87.5074 87.7394 87.875L82.6915 92.7468C82.0791 93.3393 82.9725 94.2624 83.5762 93.6743L87.6845 89.7098L88.1287 93.902C88.1536 94.133 88.3 94.3323 88.5129 94.4245L95.605 97.4798L87.0875 99.9125C86.7377 100.012 86.5292 100.397 86.6651 100.76L89.0768 107.129L82.5835 104.086C81.829 103.723 81.2712 104.891 82.0447 105.252L89.9651 108.962C90.4865 109.204 91.0335 108.688 90.8317 108.149L88.1072 100.957L97.6891 98.2196C98.2656 98.056 98.3185 97.2483 97.7656 97.0108V97.0113Z" fill="#414141"/>
<path d="M66.3989 91.9745C73.5235 89.3209 81.2383 86.3453 88.7061 82.8139C90.4459 81.9969 93.0755 80.7615 94.5657 78.9901C95.9387 77.282 95.8877 75.5277 94.6455 73.9138C92.6588 71.2934 88.9774 72.2124 80.6026 60.87C78.0745 57.6211 75.451 53.2732 73.77 49.723C68.7069 38.9553 66.9215 25.1582 56.7181 16.2101C51.8053 11.8369 44.4345 8.60398 36.7041 8.47181L35.089 8.46175C31.6348 8.45452 31.4835 8.75861 30.347 5.89842C29.0019 2.44864 26.3902 0.541507 23.5113 0.0691113C16.947 -0.73551 12.5455 5.63357 15.4629 12.7378C15.4629 12.7394 15.4644 12.7427 15.4644 12.7445C15.4693 12.7613 15.476 12.7796 15.4826 12.7964C15.7304 13.4459 15.5409 14.1744 14.9769 14.6013C8.12126 19.3364 2.58273 27.1025 0.947605 36.1552C-0.743935 45.8404 2.673 55.0934 5.98735 64.2604C6.27765 65.0612 7.47527 64.6205 7.1883 63.8218C3.96063 54.8946 0.568317 45.7513 2.20498 36.3811C3.73649 27.7739 8.98293 20.3424 15.7888 15.5939C16.7031 14.9041 17.1639 13.6065 16.652 12.2672C15.5226 9.53148 15.5809 6.52957 16.8 4.43528C18.031 2.34848 20.538 1.00332 23.33 1.34122C25.766 1.74237 27.9989 3.38801 29.1596 6.37056C29.8043 8.01774 30.3859 9.43132 32.2583 9.68378C32.3862 9.70546 32.5727 9.66545 32.6509 9.72405C33.3756 9.74186 34.0575 9.7465 36.6843 9.75761C43.5084 9.87919 50.7903 12.6519 55.8767 17.1778C65.7426 25.8283 67.6201 39.6295 72.6157 50.2739C74.1713 53.5621 76.1619 56.8887 78.512 60.2004C87.5652 72.9411 91.9833 72.5222 93.6343 74.6975C95.999 77.78 91.5417 80.0629 88.0275 81.7143C70.5885 89.9631 24.3148 105.826 14.4068 107.797C11.8631 108.367 9.66663 107.908 9.21245 105.314C8.85343 103.561 9.94154 102.31 10.7276 98.9187C11.9852 92.8664 12.0575 82.0519 10.4316 74.959C10.2421 74.1229 8.99678 74.4229 9.18758 75.2471C10.8507 82.587 10.6255 93.3713 9.47711 98.6511H9.48378C9.2999 99.1449 9.59687 98.6149 8.64724 101.415C8.13126 102.936 7.64914 104.046 7.95867 105.554C8.41823 108.218 10.6004 109.97 14.6715 109.056C19.1137 108.17 35.4695 102.935 42.5996 100.512C42.5504 101.029 42.5683 101.556 42.714 102.145C44.8004 110.589 59.4032 114.099 65.4939 107.736C69.5591 103.49 70.5639 96.7666 66.3991 91.9753L66.3989 91.9745Z" fill="#414141"/>
<path d="M13.5447 26.3727C9.39488 33.1031 8.0893 41.3755 9.96215 49.0701C10.1627 49.8964 11.4021 49.591 11.2028 48.7655C9.41155 41.4039 10.6607 33.4883 14.6293 27.0493C15.0765 26.3254 13.9833 25.6491 13.5447 26.3729V26.3727Z" fill="#414141"/>
</g>
<defs>
<clipPath id="clip0_749_1070">
<rect width="101" height="111" fill="white" transform="translate(0.5)"/>
</clipPath>
</defs>
</svg>
