<svg width="73" height="71" viewBox="0 0 73 71" fill="none" xmlns="http://www.w3.org/2000/svg">
<path d="M64.6321 63.8064C64.6321 67.205 61.7938 69.96 58.2925 69.96H14.7075C11.2062 69.96 8.36792 67.205 8.36792 63.8064V7.1936C8.36792 3.79503 11.2062 1.04004 14.7075 1.04004H41.8406C43.1034 1.04004 44.3143 1.52761 45.2063 2.39528L63.2431 19.9402C64.1326 20.8054 64.6321 21.9778 64.6321 23.2001V63.8064Z" fill="#F9F8F9"/>
<path d="M18.9843 69.96H14.7069C11.2067 69.96 8.36792 67.2046 8.36792 63.8057V7.1943C8.36792 3.79545 11.2067 1.04004 14.7069 1.04004H18.9843C15.484 1.04004 12.6453 3.79545 12.6453 7.1943V63.8057C12.6453 67.2046 15.484 69.96 18.9843 69.96Z" fill="#E3E0E4"/>
<path d="M64.632 23.1998V25.4518H48.0986C43.3765 25.4518 39.5354 21.7146 39.5354 17.1218V1.04004H41.8409C43.1027 1.04004 44.3146 1.52816 45.2057 2.39486L63.2433 19.9396C64.133 20.8049 64.632 21.9781 64.632 23.1998Z" fill="#E3E0E4"/>
<path d="M64.2057 21.2916H48.0986C45.7318 21.2916 43.8127 19.4251 43.8127 17.1218V1.4574C44.3275 1.68343 44.7994 1.9996 45.2057 2.39482L63.2433 19.9396C63.6496 20.3348 63.9733 20.7924 64.2057 21.2916Z" fill="#DC4955"/>
<path d="M62.0215 60.8076H10.9785C7.82882 60.8076 5.27539 58.3241 5.27539 55.2607V35.0146C5.27539 31.9512 7.82882 29.4678 10.9785 29.4678H62.0215C65.1712 29.4678 67.7246 31.9512 67.7246 35.0146V55.2607C67.7246 58.3241 65.1712 60.8076 62.0215 60.8076Z" fill="#DC4955"/>
<path d="M14.543 60.8076H10.9785C7.82896 60.8076 5.27539 58.324 5.27539 55.2607V35.0146C5.27539 31.9514 7.82896 29.4678 10.9785 29.4678H14.543C11.3934 29.4678 8.83984 31.9514 8.83984 35.0146V55.2607C8.83984 58.324 11.3934 60.8076 14.543 60.8076Z" fill="#C42430"/>
<path d="M65.7014 29.4894V23.2001C65.7014 21.6913 65.0969 20.2726 63.9993 19.2048L45.9625 1.66004C44.8619 0.589494 43.3982 0 41.8405 0H14.7075C10.6222 0 7.29857 3.22703 7.29857 7.1936V19.71C7.29857 20.2845 7.77735 20.75 8.36791 20.75C8.95847 20.75 9.43725 20.2845 9.43725 19.71V7.1936C9.43725 4.37399 11.8015 2.08008 14.7075 2.08008H41.8405C42.1462 2.08008 42.4498 2.11807 42.7436 2.19074V11.4733C42.7436 12.0478 43.2224 12.5133 43.813 12.5133C44.4035 12.5133 44.8823 12.0478 44.8823 11.4733V3.55125L62.0506 20.2512H48.0989C46.3253 20.2512 44.8823 18.8474 44.8823 17.122V16.3269C44.8823 15.7524 44.4035 15.2869 43.813 15.2869C43.2224 15.2869 42.7436 15.7524 42.7436 16.3269V17.122C42.7436 19.9944 45.1461 22.3313 48.0989 22.3313H63.4537C63.5257 22.6121 63.5628 22.9033 63.5628 23.2001V28.6019C63.0673 28.4892 62.5517 28.4277 62.0215 28.4277H58.2022C57.6117 28.4277 57.1329 28.8933 57.1329 29.4678C57.1329 30.0423 57.6117 30.5078 58.2022 30.5078H62.0215C64.5765 30.5078 66.6553 32.5295 66.6553 35.0146V55.2607C66.6553 57.7459 64.5765 59.7676 62.0215 59.7676H35.7041C35.1136 59.7676 34.6348 60.2331 34.6348 60.8076C34.6348 61.3821 35.1136 61.8477 35.7041 61.8477H62.0215C62.5517 61.8477 63.0673 61.7862 63.5628 61.6735V63.8064C63.5628 66.626 61.1985 68.9199 58.2925 68.9199H14.7075C11.8015 68.9199 9.43725 66.626 9.43725 63.8064V61.6735C9.93271 61.7862 10.4483 61.8477 10.9785 61.8477H30.7139C31.3045 61.8477 31.7832 61.3821 31.7832 60.8076C31.7832 60.2331 31.3045 59.7676 30.7139 59.7676H10.9785C8.42352 59.7676 6.34473 57.7459 6.34473 55.2607V35.0146C6.34473 32.5295 8.42352 30.5078 10.9785 30.5078H53.212C53.8026 30.5078 54.2813 30.0423 54.2813 29.4678C54.2813 28.8933 53.8026 28.4277 53.212 28.4277H10.9785C10.4483 28.4277 9.93271 28.4892 9.43725 28.6019V24.5635C9.43725 23.989 8.95847 23.5235 8.36791 23.5235C7.77735 23.5235 7.29857 23.989 7.29857 24.5635V29.4894C5.43921 30.6648 4.20605 32.7017 4.20605 35.0146V55.2607C4.20605 57.5737 5.43921 59.6106 7.29857 60.7861V63.8064C7.29857 67.773 10.6222 71 14.7075 71H58.2925C62.3778 71 65.7014 67.773 65.7014 63.8064V60.7861C67.5608 59.6106 68.7939 57.5737 68.7939 55.2607V35.0146C68.7939 32.7017 67.5608 30.6648 65.7014 29.4894Z" fill="black"/>
<path d="M54.7791 38.3318C55.3696 38.3318 55.8484 37.8663 55.8484 37.2917C55.8484 36.7172 55.3696 36.2517 54.7791 36.2517H48.24C47.6494 36.2517 47.1707 36.7172 47.1707 37.2917V52.9836C47.1707 53.5581 47.6494 54.0236 48.24 54.0236C48.8305 54.0236 49.3093 53.5581 49.3093 52.9836V46.0292H54.2596C54.8502 46.0292 55.329 45.5637 55.329 44.9891C55.329 44.4146 54.8502 43.9491 54.2596 43.9491H49.3093V38.3318H54.7791Z" fill="black"/>
<path d="M31.3438 52.5586C31.316 53.1962 31.7299 53.8664 32.4491 53.8478C32.5838 53.8472 35.7629 53.8353 37.0296 53.814C39.1768 53.7773 41.0889 52.8309 42.4139 51.149C43.6422 49.5897 44.3187 47.4549 44.3187 45.1377C44.3187 39.9279 41.3294 36.4276 36.8802 36.4276H32.4132C31.8325 36.4163 31.3236 36.9191 31.3438 37.4835V52.5586ZM36.8802 38.5076C40.7878 38.5076 42.1801 41.9324 42.1801 45.1377C42.1801 48.9696 40.0467 51.682 36.9922 51.734C36.1963 51.7475 34.5865 51.7573 33.5107 51.7627C33.5048 50.0473 33.4939 46.6642 33.4939 45.1208C33.4939 43.8307 33.4878 40.2839 33.4845 38.5078H36.8802V38.5076Z" fill="black"/>
<path d="M18.2211 36.1939C17.6462 36.1827 17.1419 36.6761 17.1518 37.234V53.0414C17.1518 53.616 17.6305 54.0815 18.2211 54.0815C18.8116 54.0815 19.2904 53.616 19.2904 53.0414V47.2095C20.3502 47.2036 21.9535 47.1956 22.7467 47.1956C25.9149 47.1956 28.4924 44.7279 28.4924 41.6947C28.4924 38.6616 25.9149 36.1938 22.7467 36.1938H18.2211V36.1939ZM26.3537 41.6949C26.3537 43.5491 24.702 45.1156 22.7467 45.1156C21.9585 45.1156 20.3782 45.1236 19.3158 45.1294C19.3098 44.0703 19.3017 42.4766 19.3017 41.6949C19.3017 41.0373 19.297 39.3742 19.2937 38.274H22.7467C24.7018 38.274 26.3537 39.8406 26.3537 41.6949Z" fill="black"/>
</svg>
