<svg width="22" height="22" viewBox="0 0 22 22" fill="none" xmlns="http://www.w3.org/2000/svg">
<circle cx="11" cy="11" r="10.5" fill="#262626" stroke="#262626"/>
<path d="M14.9999 11.6653H11.6666V14.9987C11.6666 15.1755 11.5963 15.345 11.4713 15.4701C11.3463 15.5951 11.1767 15.6653 10.9999 15.6653C10.8231 15.6653 10.6535 15.5951 10.5285 15.4701C10.4035 15.345 10.3333 15.1755 10.3333 14.9987V11.6653H6.99992C6.82311 11.6653 6.65354 11.5951 6.52851 11.4701C6.40349 11.345 6.33325 11.1755 6.33325 10.9987C6.33325 10.8219 6.40349 10.6523 6.52851 10.5273C6.65354 10.4022 6.82311 10.332 6.99992 10.332H10.3333V6.99867C10.3333 6.82186 10.4035 6.65229 10.5285 6.52726C10.6535 6.40224 10.8231 6.332 10.9999 6.332C11.1767 6.332 11.3463 6.40224 11.4713 6.52726C11.5963 6.65229 11.6666 6.82186 11.6666 6.99867V10.332H14.9999C15.1767 10.332 15.3463 10.4022 15.4713 10.5273C15.5964 10.6523 15.6666 10.8219 15.6666 10.9987C15.6666 11.1755 15.5964 11.345 15.4713 11.4701C15.3463 11.5951 15.1767 11.6653 14.9999 11.6653Z" fill="white"/>
</svg>
