<svg width="30" height="30" viewBox="0 0 30 30" fill="none" xmlns="http://www.w3.org/2000/svg">
<path d="M28.1082 25.56C28.1194 25.478 28.1251 25.3953 28.125 25.3125C28.1259 24.8984 27.9893 24.4957 27.7368 24.1675C27.4843 23.8393 27.13 23.6042 26.7295 23.4989C26.329 23.3937 25.9049 23.4242 25.5236 23.5858C25.1423 23.7474 24.8254 24.0309 24.6225 24.3919C24.5405 24.3814 24.4578 24.3767 24.375 24.3778V6.09375H24.8438C24.9681 6.09375 25.0873 6.04436 25.1752 5.95646C25.2632 5.86855 25.3125 5.74932 25.3125 5.625V3.75C25.3125 3.62568 25.2632 3.50645 25.1752 3.41854C25.0873 3.33064 24.9681 3.28125 24.8438 3.28125H5.15629C5.03197 3.28125 4.91274 3.33064 4.82483 3.41854C4.73693 3.50645 4.68754 3.62568 4.68754 3.75V5.625C4.68754 5.74932 4.73693 5.86855 4.82483 5.95646C4.91274 6.04436 5.03197 6.09375 5.15629 6.09375H5.62504V24.3778C5.54232 24.3769 5.45963 24.3816 5.37754 24.3919C5.17465 24.0309 4.85774 23.7474 4.47647 23.5858C4.09519 23.4242 3.67109 23.3937 3.27059 23.4989C2.87009 23.6042 2.51583 23.8393 2.26329 24.1675C2.01075 24.4957 1.8742 24.8984 1.87504 25.3125C1.87503 25.3953 1.88067 25.478 1.89192 25.56C1.53092 25.7629 1.24743 26.0798 1.08584 26.4611C0.924256 26.8423 0.893705 27.2665 0.998975 27.667C1.10424 28.0674 1.33939 28.4217 1.66757 28.6743C1.99576 28.9268 2.39844 29.0633 2.81254 29.0625H27.1875C27.6016 29.0633 28.0043 28.9268 28.3325 28.6743C28.6607 28.4217 28.8958 28.0674 29.0011 27.667C29.1064 27.2665 29.0758 26.8423 28.9142 26.4611C28.7526 26.0798 28.4692 25.7629 28.1082 25.56ZM9.37504 27.1875H11.25V28.125H9.11442C9.28313 27.8412 9.3731 27.5176 9.37504 27.1875ZM12.1875 24.375H14.5313V28.125H12.1875V24.375ZM15.4688 24.375H17.8125V28.125H15.4688V24.375ZM18.75 27.1875H20.625C20.627 27.5176 20.7169 27.8412 20.8857 28.125H18.75V27.1875ZM20.8857 26.25H18.75V24.375H19.6875V23.4375H10.3125V24.375H11.25V26.25H9.11442C8.95112 25.9659 8.71602 25.7298 8.43267 25.5652C8.14932 25.4007 7.8277 25.3135 7.50004 25.3125C7.41725 25.3125 7.33456 25.3181 7.25254 25.3294C7.08728 25.0424 6.84928 24.8041 6.56254 24.6384V22.0312H23.4375V24.6384C23.1507 24.8039 22.9127 25.0423 22.7475 25.3294C22.6655 25.3181 22.5828 25.3125 22.5 25.3125C22.1724 25.3135 21.8508 25.4007 21.5674 25.5652C21.2841 25.7298 21.049 25.9659 20.8857 26.25ZM6.56254 12.1875H23.4375V13.125H6.56254V12.1875ZM11.7188 11.25H10.7813V8.4375H11.7188V11.25ZM9.84379 11.25H8.90629V8.4375H9.84379V11.25ZM21.0938 11.25H20.1563V8.4375H21.0938V11.25ZM19.2188 11.25H18.2813V8.4375H19.2188V11.25ZM18.2813 19.2188V16.4062H19.2188V19.2188H18.2813ZM20.1563 16.4062H21.0938V19.2188H20.1563V16.4062ZM21.5625 15.4688H17.8125C17.6882 15.4688 17.569 15.5181 17.4811 15.606C17.3932 15.694 17.3438 15.8132 17.3438 15.9375V19.2188H15.4688V14.0625H23.4375V19.2188H22.0313V15.9375C22.0313 15.8132 21.9819 15.694 21.894 15.606C21.8061 15.5181 21.6869 15.4688 21.5625 15.4688ZM6.56254 14.0625H14.5313V19.2188H12.6563V15.9375C12.6563 15.8132 12.6069 15.694 12.519 15.606C12.4311 15.5181 12.3119 15.4688 12.1875 15.4688H8.43754C8.31322 15.4688 8.19399 15.5181 8.10608 15.606C8.01818 15.694 7.96879 15.8132 7.96879 15.9375V19.2188H6.56254V14.0625ZM8.90629 19.2188V16.4062H9.84379V19.2188H8.90629ZM10.7813 16.4062H11.7188V19.2188H10.7813V16.4062ZM6.56254 20.1562H23.4375V21.0938H6.56254V20.1562ZM23.4375 11.25H22.0313V7.96875C22.0313 7.84443 21.9819 7.7252 21.894 7.63729C21.8061 7.54939 21.6869 7.5 21.5625 7.5H17.8125C17.6882 7.5 17.569 7.54939 17.4811 7.63729C17.3932 7.7252 17.3438 7.84443 17.3438 7.96875V11.25H15.4688V6.09375H23.4375V11.25ZM5.62504 4.21875H24.375V5.15625H5.62504V4.21875ZM14.5313 6.09375V11.25H12.6563V7.96875C12.6563 7.84443 12.6069 7.7252 12.519 7.63729C12.4311 7.54939 12.3119 7.5 12.1875 7.5H8.43754C8.31322 7.5 8.19399 7.54939 8.10608 7.63729C8.01818 7.7252 7.96879 7.84443 7.96879 7.96875V11.25H6.56254V6.09375H14.5313ZM2.81254 28.125C2.58548 28.1258 2.36592 28.0438 2.1949 27.8944C2.02388 27.7451 1.91311 27.5385 1.8833 27.3134C1.85349 27.0883 1.90668 26.8601 2.03293 26.6714C2.15917 26.4826 2.34983 26.3463 2.56926 26.288C2.63312 26.2707 2.69259 26.2401 2.74377 26.1982C2.79495 26.1562 2.83668 26.104 2.86621 26.0448C2.89574 25.9856 2.91241 25.9208 2.91512 25.8547C2.91782 25.7886 2.90651 25.7227 2.88192 25.6612C2.83434 25.5432 2.81142 25.4166 2.81456 25.2893C2.8177 25.162 2.84684 25.0367 2.90019 24.9211C2.95354 24.8055 3.02996 24.702 3.12476 24.617C3.21957 24.5321 3.33075 24.4674 3.45148 24.4269C3.57221 24.3865 3.69993 24.3712 3.8268 24.3819C3.95367 24.3927 4.07699 24.4292 4.18921 24.4894C4.30142 24.5495 4.40014 24.632 4.47931 24.7317C4.55848 24.8314 4.61642 24.9463 4.64957 25.0692C4.66686 25.1331 4.69747 25.1925 4.73939 25.2437C4.7813 25.2949 4.83358 25.3366 4.89278 25.3662C4.95197 25.3957 5.01675 25.4124 5.08285 25.4151C5.14895 25.4178 5.21488 25.4065 5.27629 25.3819C5.39881 25.3336 5.53013 25.3116 5.6617 25.3174C5.79327 25.3232 5.92214 25.3567 6.03991 25.4157C6.15768 25.4746 6.26171 25.5577 6.34521 25.6595C6.42872 25.7614 6.48983 25.8797 6.52457 26.0067C6.54186 26.0706 6.57247 26.13 6.61439 26.1812C6.6563 26.2324 6.70858 26.2741 6.76778 26.3037C6.82697 26.3332 6.89175 26.3499 6.95785 26.3526C7.02395 26.3553 7.08988 26.344 7.15129 26.3194C7.27965 26.267 7.41802 26.2438 7.55643 26.2514C7.69484 26.259 7.82985 26.2972 7.95173 26.3632C8.07361 26.4292 8.17934 26.5215 8.26129 26.6332C8.34324 26.745 8.39938 26.8736 8.42567 27.0097C8.45196 27.1458 8.44774 27.2861 8.41331 27.4203C8.37889 27.5546 8.31511 27.6796 8.22659 27.7862C8.13806 27.8929 8.02698 27.9786 7.90135 28.0372C7.77571 28.0958 7.63866 28.1258 7.50004 28.125H2.81254ZM27.1875 28.125H22.5C22.3614 28.1258 22.2244 28.0958 22.0987 28.0372C21.9731 27.9786 21.862 27.8929 21.7735 27.7862C21.685 27.6796 21.6212 27.5546 21.5868 27.4203C21.5523 27.2861 21.5481 27.1458 21.5744 27.0097C21.6007 26.8736 21.6568 26.745 21.7388 26.6332C21.8207 26.5215 21.9265 26.4292 22.0483 26.3632C22.1702 26.2972 22.3052 26.259 22.4437 26.2514C22.5821 26.2438 22.7204 26.267 22.8488 26.3194C22.9102 26.344 22.9761 26.3553 23.0422 26.3526C23.1083 26.3499 23.1731 26.3332 23.2323 26.3037C23.2915 26.2741 23.3438 26.2324 23.3857 26.1812C23.4276 26.13 23.4582 26.0706 23.4755 26.0067C23.5102 25.8797 23.5714 25.7614 23.6549 25.6595C23.7384 25.5577 23.8424 25.4746 23.9602 25.4157C24.0779 25.3567 24.2068 25.3232 24.3384 25.3174C24.47 25.3116 24.6013 25.3336 24.7238 25.3819C24.7852 25.4065 24.8511 25.4178 24.9172 25.4151C24.9833 25.4124 25.0481 25.3957 25.1073 25.3662C25.1665 25.3366 25.2188 25.2949 25.2607 25.2437C25.3026 25.1925 25.3332 25.1331 25.3505 25.0692C25.3829 24.9454 25.4403 24.8295 25.5193 24.7288C25.5983 24.6281 25.6972 24.5447 25.8098 24.4837C25.9223 24.4228 26.0462 24.3857 26.1737 24.3746C26.3013 24.3636 26.4297 24.3789 26.5511 24.4195C26.6725 24.4602 26.7842 24.5253 26.8793 24.6109C26.9745 24.6966 27.051 24.8008 27.1042 24.9173C27.1574 25.0337 27.186 25.1598 27.1884 25.2878C27.1908 25.4158 27.1669 25.5429 27.1182 25.6612C27.0936 25.7227 27.0823 25.7886 27.085 25.8547C27.0877 25.9208 27.1043 25.9856 27.1339 26.0448C27.1634 26.104 27.2051 26.1562 27.2563 26.1982C27.3075 26.2401 27.367 26.2707 27.4308 26.288C27.6502 26.3463 27.8409 26.4826 27.9672 26.6714C28.0934 26.8601 28.1466 27.0883 28.1168 27.3134C28.087 27.5385 27.9762 27.7451 27.8052 27.8944C27.6342 28.0438 27.4146 28.1258 27.1875 28.125Z" fill="#262626"/>
<path d="M8.4375 22.9688H7.5V23.9062H8.4375V22.9688Z" fill="#262626"/>
<path d="M22.5 22.9688H21.5625V23.9062H22.5V22.9688Z" fill="#262626"/>
<path d="M4.6875 8.4375H3.75V16.875H4.6875V8.4375Z" fill="#262626"/>
<path d="M26.25 15H25.3125V22.0312H26.25V15Z" fill="#262626"/>
<path d="M21.5625 1.40625H12.6562V2.34375H21.5625V1.40625Z" fill="#262626"/>
<path d="M23.4375 1.40625H22.5V2.34375H23.4375V1.40625Z" fill="#262626"/>
</svg>
