<svg width="90" height="91" viewBox="0 0 90 91" fill="none" xmlns="http://www.w3.org/2000/svg">
<mask id="mask0_1_7249" style="mask-type:luminance" maskUnits="userSpaceOnUse" x="0" y="0" width="90" height="91">
<path d="M0.5 7.62939e-06H89.5V91H0.5V7.62939e-06Z" fill="white"/>
</mask>
<g mask="url(#mask0_1_7249)">
<path d="M78.527 89.6699H11.4731C8.59316 89.6699 6.2583 87.2828 6.2583 84.3379V76.9207L83.7418 62.5242V84.3379C83.7418 87.2828 81.407 89.6699 78.527 89.6699Z" fill="#F8F8F8"/>
<path d="M64.3402 84.3379H11.4818C8.59698 84.3379 6.2583 81.9467 6.2583 78.997V12.7687C6.2583 9.81884 8.59698 7.4276 11.4818 7.4276H78.5181C81.4032 7.4276 83.7418 9.81884 83.7418 12.7687V64.5002C83.7418 65.9168 80.5841 67.2754 79.6044 68.2769L68.0339 80.1076C67.0542 81.1092 65.7256 84.3379 64.3402 84.3379Z" fill="white"/>
<path d="M58.0625 84.3379H62.1998C64.5635 84.3379 66.4796 82.3787 66.4796 79.9617V71.0638C66.4796 68.647 68.3959 66.6876 70.7596 66.6876H79.462C81.8258 66.6876 83.742 64.7285 83.742 62.3116V56.7686V64.4754C83.742 65.8919 83.1916 67.2503 82.2119 68.252L68.0096 82.7737C67.0299 83.7752 65.7014 84.3379 64.316 84.3379H58.0625Z" fill="#EFE2DD"/>
<path d="M83.7414 12.759V26.4766H6.25928V12.759C6.25928 9.81574 8.59379 7.42699 11.4741 7.42699H78.5266C81.4069 7.42699 83.7414 9.81574 83.7414 12.759Z" fill="#D8D8D8"/>
<path d="M21.0204 16.7334C20.0257 16.7334 19.1812 16.7329 18.4616 16.7329C16.2748 16.7329 14.4966 14.9146 14.4966 12.6805V7.42669H17.104V12.6805C17.104 13.4448 17.7124 14.0668 18.4616 14.0668C19.1812 14.0668 21.74 16.7334 21.0204 16.7334Z" fill="#D8D8D8"/>
<path d="M68.3812 16.7334C68.3812 16.7334 66.5426 16.7329 65.8212 16.7329C63.6362 16.7329 61.8579 14.9146 61.8579 12.6805V7.42669H64.4653V12.6805C64.4653 13.4448 65.0737 14.0668 65.8212 14.0668C66.5426 14.0668 68.3812 15.9976 68.3812 16.7334Z" fill="#D8D8D8"/>
<path d="M22.9762 7.4274V4.05632C22.9762 3.29117 22.3675 2.66874 21.6191 2.66874H21.0207C20.2723 2.66874 19.6636 3.29117 19.6636 4.05632V12.6798C19.6636 13.445 20.2723 14.0674 21.0207 14.0674C21.7406 14.0674 22.3244 14.6642 22.3244 15.4004C22.3244 16.1366 21.7406 16.7334 21.0207 16.7334C18.8346 16.7334 17.0562 14.915 17.0562 12.6798V4.05632C17.0562 1.82113 18.8346 0.00272942 21.0207 0.00272942H21.6191C23.8052 0.00272942 25.5836 1.82113 25.5836 4.05632V7.4274H22.9762Z" fill="#414141"/>
<path d="M70.3371 7.4274V4.05632C70.3371 3.29117 69.7283 2.66874 68.98 2.66874H68.3815C67.6332 2.66874 67.0244 3.29117 67.0244 4.05632V12.6798C67.0244 13.445 67.6332 14.0674 68.3815 14.0674C69.1015 14.0674 69.6852 14.6642 69.6852 15.4004C69.6852 16.1366 69.1015 16.7334 68.3815 16.7334C66.1954 16.7334 64.417 14.915 64.417 12.6798V4.05632C64.417 1.82113 66.1954 0.00272942 68.3815 0.00272942H68.98C71.166 0.00272942 72.9445 1.82113 72.9445 4.05632V7.4274H70.3371Z" fill="#414141"/>
<path d="M21.5303 43.3594H15.3222C14.6365 43.3594 14.0806 42.791 14.0806 42.0898V35.7422C14.0806 35.0411 14.6365 34.4727 15.3222 34.4727H21.5303C22.2161 34.4727 22.772 35.0411 22.772 35.7422V42.0898C22.772 42.791 22.2161 43.3594 21.5303 43.3594Z" fill="#D8D8D8"/>
<path d="M39.2461 43.3594H33.038C32.3523 43.3594 31.7964 42.791 31.7964 42.0898V35.7422C31.7964 35.0411 32.3523 34.4727 33.038 34.4727H39.2461C39.9319 34.4727 40.4878 35.0411 40.4878 35.7422V42.0898C40.4878 42.791 39.9319 43.3594 39.2461 43.3594Z" fill="#D8D8D8"/>
<path d="M56.962 43.3594H50.7539C50.0681 43.3594 49.5122 42.791 49.5122 42.0898V35.7422C49.5122 35.0411 50.0681 34.4727 50.7539 34.4727H56.962C57.6477 34.4727 58.2036 35.0411 58.2036 35.7422V42.0898C58.2036 42.791 57.6477 43.3594 56.962 43.3594Z" fill="#D8D8D8"/>
<path d="M74.6778 43.3594H68.4697C67.7839 43.3594 67.228 42.791 67.228 42.0898V35.7422C67.228 35.0411 67.7839 34.4727 68.4697 34.4727H74.6778C75.3635 34.4727 75.9194 35.0411 75.9194 35.7422V42.0898C75.9194 42.791 75.3635 43.3594 74.6778 43.3594Z" fill="#D8D8D8"/>
<path d="M21.5303 59.8486H15.3222C14.6365 59.8486 14.0806 59.2802 14.0806 58.5791V52.2315C14.0806 51.5303 14.6365 50.9619 15.3222 50.9619H21.5303C22.2161 50.9619 22.772 51.5303 22.772 52.2315V58.5791C22.772 59.2802 22.2161 59.8486 21.5303 59.8486Z" fill="#D8D8D8"/>
<path d="M39.2461 59.8486H33.038C32.3523 59.8486 31.7964 59.2802 31.7964 58.5791V52.2315C31.7964 51.5303 32.3523 50.9619 33.038 50.9619H39.2461C39.9319 50.9619 40.4878 51.5303 40.4878 52.2315V58.5791C40.4878 59.2802 39.9319 59.8486 39.2461 59.8486Z" fill="#D8D8D8"/>
<path d="M56.962 59.8486H50.7539C50.0681 59.8486 49.5122 59.2802 49.5122 58.5791V52.2315C49.5122 51.5303 50.0681 50.9619 50.7539 50.9619H56.962C57.6477 50.9619 58.2036 51.5303 58.2036 52.2315V58.5791C58.2036 59.2802 57.6477 59.8486 56.962 59.8486Z" fill="#D8D8D8"/>
<path d="M74.6778 60.2441H68.4697C67.7839 60.2441 67.228 59.6757 67.228 58.9746V52.627C67.228 51.9258 67.7839 51.3574 68.4697 51.3574H74.6778C75.3635 51.3574 75.9194 51.9258 75.9194 52.627V58.9746C75.9194 59.6757 75.3635 60.2441 74.6778 60.2441Z" fill="#D8D8D8"/>
<path d="M21.5303 76.3369H15.3222C14.6365 76.3369 14.0806 75.7685 14.0806 75.0674V68.7198C14.0806 68.0186 14.6365 67.4502 15.3222 67.4502H21.5303C22.2161 67.4502 22.772 68.0186 22.772 68.7198V75.0674C22.772 75.7685 22.2161 76.3369 21.5303 76.3369Z" fill="#D8D8D8"/>
<path d="M39.2461 76.3369H33.038C32.3523 76.3369 31.7964 75.7685 31.7964 75.0674V68.7198C31.7964 68.0186 32.3523 67.4502 33.038 67.4502H39.2461C39.9319 67.4502 40.4878 68.0186 40.4878 68.7198V75.0674C40.4878 75.7685 39.9319 76.3369 39.2461 76.3369Z" fill="#D8D8D8"/>
<path d="M56.962 76.3369H50.7539C50.0681 76.3369 49.5122 75.7685 49.5122 75.0674V68.7198C49.5122 68.0186 50.0681 67.4502 50.7539 67.4502H56.962C57.6477 67.4502 58.2036 68.0186 58.2036 68.7198V75.0674C58.2036 75.7685 57.6477 76.3369 56.962 76.3369Z" fill="#D8D8D8"/>
<path d="M83.7418 62.5221V84.3359C83.7418 87.2806 81.407 89.668 78.527 89.668H11.4731C8.59316 89.668 6.2583 87.2806 6.2583 84.3359V76.9185" stroke="#414141" stroke-width="2" stroke-miterlimit="10" stroke-linecap="round" stroke-linejoin="round"/>
<path d="M64.3402 84.335H11.4818C8.59698 84.335 6.2583 81.9437 6.2583 78.994V12.7656C6.2583 9.81591 8.59698 7.42467 11.4818 7.42467H78.5181C81.4032 7.42467 83.7418 9.81591 83.7418 12.7656V64.4973C83.7418 65.9139 83.1915 67.2725 82.2118 68.274L68.0339 82.7705C67.0542 83.7723 65.7256 84.335 64.3402 84.335Z" stroke="#414141" stroke-width="2" stroke-miterlimit="10" stroke-linecap="round" stroke-linejoin="round"/>
<path d="M58.0625 84.335H62.1998C64.5635 84.335 66.4796 82.3758 66.4796 79.9588V71.0609C66.4796 68.644 68.3959 66.6847 70.7596 66.6847H79.462C81.8258 66.6847 83.742 64.7255 83.742 62.3087V56.7657" stroke="#414141" stroke-width="2" stroke-miterlimit="10" stroke-linecap="round" stroke-linejoin="round"/>
<path d="M21.6723 26.4746H6.2583" stroke="#414141" stroke-width="2" stroke-miterlimit="10" stroke-linecap="round" stroke-linejoin="round"/>
<path d="M83.7419 26.4746H26.8872" stroke="#414141" stroke-width="2" stroke-miterlimit="10" stroke-linecap="round" stroke-linejoin="round"/>
<path d="M21.0207 15.3975C19.5511 15.3975 18.3599 14.1794 18.3599 12.6769V4.05339C18.3599 2.55082 19.5511 1.33281 21.0207 1.33281H21.6191C23.0887 1.33281 24.2799 2.55082 24.2799 4.05339V7.42447" stroke="#414141" stroke-width="2" stroke-miterlimit="10" stroke-linecap="round" stroke-linejoin="round"/>
<path d="M68.381 15.3975C66.9115 15.3975 65.7202 14.1794 65.7202 12.6769V4.05339C65.7202 2.55082 66.9115 1.33281 68.381 1.33281H68.9795C70.449 1.33281 71.6403 2.55082 71.6403 4.05339V7.42447" stroke="#414141" stroke-width="2" stroke-miterlimit="10" stroke-linecap="round" stroke-linejoin="round"/>
<path d="M21.5303 43.3594H15.3222C14.6365 43.3594 14.0806 42.791 14.0806 42.0898V35.7422C14.0806 35.0411 14.6365 34.4727 15.3222 34.4727H21.5303C22.2161 34.4727 22.772 35.0411 22.772 35.7422V42.0898C22.772 42.791 22.2161 43.3594 21.5303 43.3594Z" stroke="#414141" stroke-width="2" stroke-miterlimit="10" stroke-linecap="round" stroke-linejoin="round"/>
<path d="M39.2461 43.3594H33.038C32.3523 43.3594 31.7964 42.791 31.7964 42.0898V35.7422C31.7964 35.0411 32.3523 34.4727 33.038 34.4727H39.2461C39.9319 34.4727 40.4878 35.0411 40.4878 35.7422V42.0898C40.4878 42.791 39.9319 43.3594 39.2461 43.3594Z" stroke="#414141" stroke-width="2" stroke-miterlimit="10" stroke-linecap="round" stroke-linejoin="round"/>
<path d="M56.962 43.3594H50.7539C50.0681 43.3594 49.5122 42.791 49.5122 42.0898V35.7422C49.5122 35.0411 50.0681 34.4727 50.7539 34.4727H56.962C57.6477 34.4727 58.2036 35.0411 58.2036 35.7422V42.0898C58.2036 42.791 57.6477 43.3594 56.962 43.3594Z" stroke="#414141" stroke-width="2" stroke-miterlimit="10" stroke-linecap="round" stroke-linejoin="round"/>
<path d="M74.6778 43.3594H68.4697C67.7839 43.3594 67.228 42.791 67.228 42.0898V35.7422C67.228 35.0411 67.7839 34.4727 68.4697 34.4727H74.6778C75.3635 34.4727 75.9194 35.0411 75.9194 35.7422V42.0898C75.9194 42.791 75.3635 43.3594 74.6778 43.3594Z" stroke="#414141" stroke-width="2" stroke-miterlimit="10" stroke-linecap="round" stroke-linejoin="round"/>
<path d="M21.5303 59.8486H15.3222C14.6365 59.8486 14.0806 59.2802 14.0806 58.5791V52.2315C14.0806 51.5303 14.6365 50.9619 15.3222 50.9619H21.5303C22.2161 50.9619 22.772 51.5303 22.772 52.2315V58.5791C22.772 59.2802 22.2161 59.8486 21.5303 59.8486Z" stroke="#414141" stroke-width="2" stroke-miterlimit="10" stroke-linecap="round" stroke-linejoin="round"/>
<path d="M39.2461 59.8486H33.038C32.3523 59.8486 31.7964 59.2802 31.7964 58.5791V52.2315C31.7964 51.5303 32.3523 50.9619 33.038 50.9619H39.2461C39.9319 50.9619 40.4878 51.5303 40.4878 52.2315V58.5791C40.4878 59.2802 39.9319 59.8486 39.2461 59.8486Z" stroke="#414141" stroke-width="2" stroke-miterlimit="10" stroke-linecap="round" stroke-linejoin="round"/>
<path d="M56.962 59.8486H50.7539C50.0681 59.8486 49.5122 59.2802 49.5122 58.5791V52.2315C49.5122 51.5303 50.0681 50.9619 50.7539 50.9619H56.962C57.6477 50.9619 58.2036 51.5303 58.2036 52.2315V58.5791C58.2036 59.2802 57.6477 59.8486 56.962 59.8486Z" stroke="#414141" stroke-width="2" stroke-miterlimit="10" stroke-linecap="round" stroke-linejoin="round"/>
<path d="M74.6778 60.2441H68.4697C67.7839 60.2441 67.228 59.6757 67.228 58.9746V52.627C67.228 51.9258 67.7839 51.3574 68.4697 51.3574H74.6778C75.3635 51.3574 75.9194 51.9258 75.9194 52.627V58.9746C75.9194 59.6757 75.3635 60.2441 74.6778 60.2441Z" stroke="#414141" stroke-width="2" stroke-miterlimit="10" stroke-linecap="round" stroke-linejoin="round"/>
<path d="M21.5303 76.3369H15.3222C14.6365 76.3369 14.0806 75.7685 14.0806 75.0674V68.7198C14.0806 68.0186 14.6365 67.4502 15.3222 67.4502H21.5303C22.2161 67.4502 22.772 68.0186 22.772 68.7198V75.0674C22.772 75.7685 22.2161 76.3369 21.5303 76.3369Z" stroke="#414141" stroke-width="2" stroke-miterlimit="10" stroke-linecap="round" stroke-linejoin="round"/>
<path d="M39.2461 76.3369H33.038C32.3523 76.3369 31.7964 75.7685 31.7964 75.0674V68.7198C31.7964 68.0186 32.3523 67.4502 33.038 67.4502H39.2461C39.9319 67.4502 40.4878 68.0186 40.4878 68.7198V75.0674C40.4878 75.7685 39.9319 76.3369 39.2461 76.3369Z" stroke="#414141" stroke-width="2" stroke-miterlimit="10" stroke-linecap="round" stroke-linejoin="round"/>
<path d="M49.5122 70.5502V68.7198C49.5122 68.0184 50.0681 67.4502 50.7539 67.4502H56.962C57.6477 67.4502 58.2036 68.0184 58.2036 68.7198V75.0674C58.2036 75.7685 57.6477 76.3369 56.962 76.3369H50.7539C50.0681 76.3369 49.5122 75.7685 49.5122 75.0674" stroke="#414141" stroke-width="2" stroke-miterlimit="10" stroke-linecap="round" stroke-linejoin="round"/>
</g>
</svg>
