<svg width="23" height="14" viewBox="0 0 23 14" fill="none" xmlns="http://www.w3.org/2000/svg">
<path d="M11.5042 14C18.2999 14 23 8.66352 23 6.99996C23 5.32823 18.2913 0 11.5042 0C4.75948 0 0 5.32823 0 6.99996C0 8.66352 4.79345 14 11.5042 14ZM11.5042 11.5871C8.85726 11.5871 6.77021 9.50353 6.75321 6.99996C6.74475 4.43057 8.85726 2.41295 11.5042 2.41295C14.1343 2.41295 16.2468 4.43057 16.2468 6.99996C16.2468 9.50353 14.1343 11.5871 11.5042 11.5871ZM11.5042 8.65526C12.446 8.65526 13.2265 7.90587 13.2265 6.99996C13.2265 6.08587 12.446 5.33644 11.5042 5.33644C10.554 5.33644 9.77352 6.08587 9.77352 6.99996C9.77352 7.90587 10.554 8.65526 11.5042 8.65526Z" fill="#CBCBCB"/>
</svg>
