<svg width="30" height="30" viewBox="0 0 30 30" fill="none" xmlns="http://www.w3.org/2000/svg">
<g clip-path="url(#clip0_1_16323)">
<path d="M29.0456 15.3433L26.7019 6.90582C26.6744 6.80707 26.6154 6.72003 26.5338 6.65803C26.4522 6.59602 26.3525 6.56247 26.25 6.5625H10.7813V3.75C11.1542 3.75 11.5119 3.60184 11.7757 3.33812C12.0394 3.0744 12.1875 2.71671 12.1875 2.34375C12.1875 1.97079 12.0394 1.6131 11.7757 1.34938C11.5119 1.08566 11.1542 0.9375 10.7813 0.9375H6.09379C5.72083 0.9375 5.36314 1.08566 5.09942 1.34938C4.83569 1.6131 4.68754 1.97079 4.68754 2.34375C4.68754 2.71671 4.83569 3.0744 5.09942 3.33812C5.36314 3.60184 5.72083 3.75 6.09379 3.75V6.5625H3.75004C3.64755 6.56247 3.54788 6.59602 3.46628 6.65803C3.38468 6.72003 3.32564 6.80707 3.29822 6.90582L0.954472 15.3433C0.935215 15.413 0.932301 15.4861 0.945957 15.557C0.959613 15.628 0.98947 15.6948 1.0332 15.7523C1.07693 15.8098 1.13335 15.8565 1.19807 15.8886C1.26278 15.9207 1.33404 15.9374 1.40629 15.9375H3.75582C3.56887 16.1833 3.43275 16.4638 3.3554 16.7627C3.27806 17.0617 3.26104 17.373 3.30533 17.6786C3.34963 17.9842 3.45435 18.2779 3.61339 18.5426C3.77243 18.8072 3.9826 19.0376 4.23163 19.2201C3.93712 19.4357 3.69758 19.7178 3.53246 20.0433C3.36734 20.3688 3.28128 20.7287 3.28127 21.0937C3.28126 21.4587 3.3673 21.8186 3.5324 22.1441C3.6975 22.4696 3.93702 22.7517 4.23152 22.9673C3.98267 23.15 3.77265 23.3804 3.61368 23.645C3.45471 23.9096 3.34996 24.2032 3.30553 24.5087C3.2611 24.8142 3.27788 25.1255 3.35489 25.4244C3.4319 25.7234 3.5676 26.004 3.7541 26.25H3.28129C2.90833 26.25 2.55064 26.3982 2.28692 26.6619C2.02319 26.9256 1.87504 27.2833 1.87504 27.6562C1.87504 28.0292 2.02319 28.3869 2.28692 28.6506C2.55064 28.9143 2.90833 29.0625 3.28129 29.0625H26.7188C27.0917 29.0625 27.4494 28.9143 27.7132 28.6506C27.9769 28.3869 28.125 28.0292 28.125 27.6562C28.125 27.2833 27.9769 26.9256 27.7132 26.6619C27.4494 26.3982 27.0917 26.25 26.7188 26.25H26.243C26.4303 26.0044 26.5666 25.7239 26.6442 25.425C26.7218 25.126 26.7391 24.8146 26.6949 24.509C26.6508 24.2033 26.5462 23.9095 26.3873 23.6447C26.2283 23.3799 26.0182 23.1495 25.7691 22.9668C26.0635 22.7512 26.3028 22.4692 26.4678 22.1437C26.6328 21.8183 26.7188 21.4585 26.7188 21.0936C26.7188 20.7288 26.6328 20.369 26.4677 20.0436C26.3027 19.7181 26.0633 19.4362 25.7689 19.2206C26.0178 19.0378 26.2278 18.8074 26.3867 18.5427C26.5456 18.278 26.6503 17.9843 26.6946 17.6788C26.739 17.3733 26.7221 17.062 26.645 16.763C26.5679 16.4641 26.4322 16.1835 26.2456 15.9375H28.5938C28.666 15.9374 28.7373 15.9207 28.802 15.8886C28.8667 15.8565 28.9231 15.8098 28.9669 15.7523C29.0106 15.6948 29.0405 15.628 29.0541 15.557C29.0678 15.4861 29.0649 15.413 29.0456 15.3433ZM5.62504 2.34375C5.62516 2.21947 5.67459 2.10031 5.76247 2.01243C5.85035 1.92455 5.9695 1.87512 6.09379 1.875H10.7813C10.9056 1.875 11.0248 1.92439 11.1127 2.01229C11.2007 2.1002 11.25 2.21943 11.25 2.34375C11.25 2.46807 11.2007 2.5873 11.1127 2.67521C11.0248 2.76311 10.9056 2.8125 10.7813 2.8125H6.09379C5.9695 2.81238 5.85035 2.76295 5.76247 2.67507C5.67459 2.58719 5.62516 2.46803 5.62504 2.34375ZM9.84379 3.75V6.5625H7.03129V3.75H9.84379ZM4.21879 17.3438C4.21879 17.0656 4.30126 16.7937 4.45578 16.5625C4.6103 16.3312 4.82993 16.151 5.08689 16.0445C5.34385 15.9381 5.6266 15.9103 5.89938 15.9645C6.17217 16.0188 6.42274 16.1527 6.61941 16.3494C6.81607 16.546 6.95001 16.7966 7.00427 17.0694C7.05853 17.3422 7.03068 17.6249 6.92424 17.8819C6.81781 18.1389 6.63756 18.3585 6.40631 18.513C6.17505 18.6675 5.90317 18.75 5.62504 18.75C5.2522 18.7496 4.89475 18.6013 4.63112 18.3377C4.36748 18.074 4.21919 17.7166 4.21879 17.3438ZM4.21879 21.0938C4.21919 20.7209 4.36748 20.3635 4.63112 20.0998C4.89475 19.8362 5.2522 19.6879 5.62504 19.6875H10.7813V22.5H5.62504C5.2522 22.4996 4.89475 22.3513 4.63112 22.0877C4.36748 21.824 4.21919 21.4666 4.21879 21.0938ZM7.49514 15.9375H22.5049C22.1975 16.3419 22.0311 16.8359 22.0313 17.3439C22.0315 17.8519 22.1982 18.3458 22.5059 18.75H19.1714C19.0627 18.221 18.7749 17.7457 18.3566 17.4042C17.9383 17.0626 17.4151 16.8757 16.875 16.875H13.125C12.585 16.8757 12.0618 17.0626 11.6435 17.4042C11.2252 17.7457 10.9374 18.221 10.8287 18.75H7.49414C7.80188 18.3458 7.96861 17.8519 7.96879 17.3439C7.96897 16.8359 7.80259 16.3419 7.49514 15.9375ZM22.5054 26.25H19.2188V23.4375H22.5043C22.1972 23.8421 22.0311 24.336 22.0313 24.8439C22.0315 25.3518 22.198 25.8457 22.5054 26.25ZM18.2813 19.2188V26.25H11.7188V19.2188C11.7192 18.8459 11.8675 18.4885 12.1311 18.2248C12.3948 17.9612 12.7522 17.8129 13.125 17.8125H16.875C17.2479 17.8129 17.6053 17.9612 17.869 18.2248C18.1326 18.4885 18.2809 18.8459 18.2813 19.2188ZM7.49514 23.4375H10.7813V26.25H7.49495C7.80232 25.8456 7.96875 25.3517 7.96879 24.8438C7.96882 24.3359 7.80246 23.8419 7.49514 23.4375ZM4.21879 24.8438C4.21879 24.5656 4.30126 24.2937 4.45578 24.0625C4.6103 23.8312 4.82993 23.651 5.08689 23.5445C5.34385 23.4381 5.6266 23.4103 5.89938 23.4645C6.17217 23.5188 6.42274 23.6527 6.61941 23.8494C6.81607 24.046 6.95001 24.2966 7.00427 24.5694C7.05853 24.8422 7.03068 25.1249 6.92424 25.3819C6.81781 25.6389 6.63756 25.8585 6.40631 26.013C6.17505 26.1675 5.90317 26.25 5.62504 26.25C5.2522 26.2496 4.89475 26.1013 4.63112 25.8377C4.36748 25.574 4.21919 25.2166 4.21879 24.8438ZM27.1875 27.6562C27.1874 27.7805 27.138 27.8997 27.0501 27.9876C26.9622 28.0754 26.8431 28.1249 26.7188 28.125H3.28129C3.15697 28.125 3.03774 28.0756 2.94983 27.9877C2.86192 27.8998 2.81254 27.7806 2.81254 27.6562C2.81254 27.5319 2.86192 27.4127 2.94983 27.3248C3.03774 27.2369 3.15697 27.1875 3.28129 27.1875H26.7188C26.8431 27.1876 26.9622 27.2371 27.0501 27.3249C27.138 27.4128 27.1874 27.532 27.1875 27.6562ZM25.7813 24.8438C25.7813 25.1219 25.6988 25.3938 25.5443 25.625C25.3898 25.8563 25.1701 26.0365 24.9132 26.143C24.6562 26.2494 24.3735 26.2772 24.1007 26.223C23.8279 26.1687 23.5773 26.0348 23.3807 25.8381C23.184 25.6415 23.0501 25.3909 22.9958 25.1181C22.9415 24.8453 22.9694 24.5626 23.0758 24.3056C23.1823 24.0486 23.3625 23.829 23.5938 23.6745C23.825 23.52 24.0969 23.4375 24.375 23.4375C24.7479 23.4379 25.1053 23.5862 25.369 23.8498C25.6326 24.1135 25.7809 24.4709 25.7813 24.8438ZM25.7813 21.0938C25.7809 21.4666 25.6326 21.824 25.369 22.0877C25.1053 22.3513 24.7479 22.4996 24.375 22.5H19.2188V19.6875H24.375C24.7479 19.6879 25.1053 19.8362 25.369 20.0998C25.6326 20.3635 25.7809 20.7209 25.7813 21.0938ZM24.375 18.75C24.0969 18.75 23.825 18.6675 23.5938 18.513C23.3625 18.3585 23.1823 18.1389 23.0758 17.8819C22.9694 17.6249 22.9415 17.3422 22.9958 17.0694C23.0501 16.7966 23.184 16.546 23.3807 16.3494C23.5773 16.1527 23.8279 16.0188 24.1007 15.9645C24.3735 15.9103 24.6562 15.9381 24.9132 16.0445C25.1701 16.151 25.3898 16.3312 25.5443 16.5625C25.6988 16.7937 25.7813 17.0656 25.7813 17.3438C25.7809 17.7166 25.6326 18.074 25.369 18.3377C25.1053 18.6013 24.7479 18.7496 24.375 18.75ZM2.02289 15L4.10618 7.5H25.8939L27.9772 15H2.02289Z" fill="#262626"/>
<path d="M24.8438 9.375H21.5625C21.4382 9.375 21.319 9.32561 21.231 9.23771C21.1431 9.1498 21.0938 9.03057 21.0938 8.90625C21.0938 8.78193 21.1431 8.6627 21.231 8.57479C21.319 8.48689 21.4382 8.4375 21.5625 8.4375H24.8438C24.9681 8.4375 25.0873 8.48689 25.1752 8.57479C25.2631 8.6627 25.3125 8.78193 25.3125 8.90625C25.3125 9.03057 25.2631 9.1498 25.1752 9.23771C25.0873 9.32561 24.9681 9.375 24.8438 9.375Z" fill="#262626"/>
<path d="M7.03125 14.0625H5.625C5.50068 14.0625 5.38145 14.0131 5.29354 13.9252C5.20564 13.8373 5.15625 13.7181 5.15625 13.5938C5.15625 13.4694 5.20564 13.3502 5.29354 13.2623C5.38145 13.1744 5.50068 13.125 5.625 13.125H7.03125C7.15557 13.125 7.2748 13.1744 7.36271 13.2623C7.45061 13.3502 7.5 13.4694 7.5 13.5938C7.5 13.7181 7.45061 13.8373 7.36271 13.9252C7.2748 14.0131 7.15557 14.0625 7.03125 14.0625Z" fill="#262626"/>
<path d="M16.875 22.5C17.1339 22.5 17.3438 22.2901 17.3438 22.0312C17.3438 21.7724 17.1339 21.5625 16.875 21.5625C16.6161 21.5625 16.4062 21.7724 16.4062 22.0312C16.4062 22.2901 16.6161 22.5 16.875 22.5Z" fill="#262626"/>
<path d="M19.6875 9.375C19.9464 9.375 20.1562 9.16513 20.1562 8.90625C20.1562 8.64737 19.9464 8.4375 19.6875 8.4375C19.4286 8.4375 19.2188 8.64737 19.2188 8.90625C19.2188 9.16513 19.4286 9.375 19.6875 9.375Z" fill="#262626"/>
<path d="M3.75 14.0625C4.00888 14.0625 4.21875 13.8526 4.21875 13.5938C4.21875 13.3349 4.00888 13.125 3.75 13.125C3.49112 13.125 3.28125 13.3349 3.28125 13.5938C3.28125 13.8526 3.49112 14.0625 3.75 14.0625Z" fill="#262626"/>
<path d="M5.625 21.5625C5.88388 21.5625 6.09375 21.3526 6.09375 21.0938C6.09375 20.8349 5.88388 20.625 5.625 20.625C5.36612 20.625 5.15625 20.8349 5.15625 21.0938C5.15625 21.3526 5.36612 21.5625 5.625 21.5625Z" fill="#262626"/>
<path d="M9.375 21.5625H7.5C7.37568 21.5625 7.25645 21.5131 7.16854 21.4252C7.08064 21.3373 7.03125 21.2181 7.03125 21.0938C7.03125 20.9694 7.08064 20.8502 7.16854 20.7623C7.25645 20.6744 7.37568 20.625 7.5 20.625H9.375C9.49932 20.625 9.61855 20.6744 9.70646 20.7623C9.79436 20.8502 9.84375 20.9694 9.84375 21.0938C9.84375 21.2181 9.79436 21.3373 9.70646 21.4252C9.61855 21.5131 9.49932 21.5625 9.375 21.5625Z" fill="#262626"/>
<path d="M24.375 21.5625H20.625C20.5007 21.5625 20.3815 21.5131 20.2935 21.4252C20.2056 21.3373 20.1562 21.2181 20.1562 21.0938C20.1562 20.9694 20.2056 20.8502 20.2935 20.7623C20.3815 20.6744 20.5007 20.625 20.625 20.625H24.375C24.4993 20.625 24.6185 20.6744 24.7065 20.7623C24.7944 20.8502 24.8438 20.9694 24.8438 21.0938C24.8438 21.2181 24.7944 21.3373 24.7065 21.4252C24.6185 21.5131 24.4993 21.5625 24.375 21.5625Z" fill="#262626"/>
</g>
<defs>
<clipPath id="clip0_1_16323">
<rect width="30" height="30" fill="white"/>
</clipPath>
</defs>
</svg>
