<svg width="131" height="130" viewBox="0 0 131 130" fill="none" xmlns="http://www.w3.org/2000/svg">
<rect x="0.5" width="130" height="130" fill="white"/>
<g clip-path="url(#clip0_1_9577)">
<path fill-rule="evenodd" clip-rule="evenodd" d="M76.3524 22.5393L102.477 60.2097C103.741 62.0324 103.275 64.526 101.439 65.7794L38.7649 108.477C36.9259 109.73 34.41 109.268 33.1453 107.445L7.01825 69.7723C5.75625 67.9496 6.22006 65.456 8.06182 64.2026L70.7355 21.5077C72.5745 20.2569 75.0904 20.7166 76.3524 22.5393Z" fill="#262626"/>
<path d="M103.143 59.7525L99.8799 55.0487L98.2215 52.6567L97.9518 52.2692L77.0184 22.0848C76.2849 21.0264 75.1793 20.3155 73.9065 20.0803C72.6337 19.8478 71.3448 20.1177 70.2769 20.8447L7.60329 63.5422C5.39749 65.0442 4.83661 68.0429 6.35208 70.2264L32.4764 107.894C33.2099 108.952 34.3155 109.666 35.591 109.899C35.8876 109.955 36.1869 109.981 36.4835 109.981C37.43 109.981 38.3523 109.706 39.1558 109.177C39.1774 109.164 39.199 109.148 39.2206 109.134L39.7275 108.789L99.8799 67.8077L101.894 66.4366C104.097 64.9373 104.658 61.9386 103.143 59.7525ZM99.8799 65.8647L38.3064 107.811C38.2471 107.851 38.1878 107.889 38.1284 107.923C37.4543 108.324 36.6642 108.463 35.8849 108.322C35.0355 108.167 34.2993 107.691 33.8085 106.985L7.68418 69.3177C6.67567 67.8611 7.05049 65.8647 8.52012 64.8625L71.1938 22.1676C71.7385 21.7961 72.3695 21.6037 73.0167 21.6037C73.2135 21.6037 73.413 21.6224 73.6126 21.6571C74.0359 21.7346 74.4324 21.895 74.7829 22.1195C75.1362 22.3467 75.4436 22.6407 75.6863 22.9934L95.9887 52.2692L96.2584 52.6567L99.8799 57.8763L101.811 60.6611C102.819 62.1177 102.447 64.1168 100.98 65.1164L99.8799 65.8647Z" fill="#D8D8D8"/>
<path d="M31.1299 66.3247L20.9072 73.2881L26.5584 81.4376L36.7811 74.4742L31.1299 66.3247Z" fill="#D8D8D8"/>
<path d="M37.4489 74.0161L31.7996 65.8674C31.6756 65.6936 31.4895 65.5734 31.2792 65.5333C31.0688 65.4959 30.8504 65.5413 30.6724 65.6616L20.4525 72.6264C20.083 72.8749 19.9886 73.3747 20.2421 73.7408L25.8941 81.8896C26.0155 82.066 26.2015 82.1863 26.4146 82.2237C26.4631 82.2317 26.5116 82.2371 26.5602 82.2371C26.7247 82.2371 26.8838 82.189 27.0186 82.0954L37.2413 75.1333C37.4193 75.013 37.5406 74.8259 37.5784 74.6175C37.6188 74.409 37.573 74.1925 37.4489 74.0161ZM26.7705 80.3208L22.0353 73.4923L30.9232 67.4362L35.6584 74.2647L26.7705 80.3208Z" fill="#D8D8D8"/>
<path fill-rule="evenodd" clip-rule="evenodd" d="M79.2837 39.0321L42.8395 63.8606C42.1034 64.363 41.0949 64.1786 40.5906 63.4463L36.4675 57.4998C35.9606 56.7702 36.1494 55.7706 36.8855 55.2708L73.3269 30.4423C74.0631 29.9399 75.0716 30.1269 75.5759 30.8566L79.6989 36.8031C80.2059 37.5327 80.0171 38.5323 79.281 39.0321H79.2837Z" fill="white"/>
<path d="M80.3676 36.3484L76.2446 30.4018C75.8751 29.8726 75.3223 29.5145 74.6859 29.3996C74.0495 29.282 73.4024 29.4183 72.8685 29.7818L36.4243 54.6103C35.3214 55.3613 35.041 56.8606 35.7987 57.9537L38.1286 61.3132L39.9218 63.9003C40.2912 64.4294 40.844 64.7849 41.4804 64.9025C41.6314 64.9292 41.7797 64.9452 41.928 64.9452C42.4134 64.9452 42.888 64.7983 43.2979 64.5203L60.7123 52.6566L61.2813 52.2691L79.742 39.6918C80.2759 39.3283 80.6373 38.7804 80.7532 38.147C80.8719 37.5163 80.7343 36.8775 80.3676 36.3484ZM79.1622 37.8557C79.1245 38.0668 79.0031 38.2486 78.8252 38.3715L58.4229 52.2691L57.854 52.6566L42.381 63.1974C42.2031 63.3203 41.9873 63.3657 41.777 63.3256C41.564 63.2882 41.3779 63.168 41.2566 62.9916L38.1286 58.4802L37.1335 57.045C36.88 56.6815 36.9744 56.1818 37.3412 55.9305L38.5573 55.0994L38.8971 54.8695L42.0008 52.7555H42.0035L42.7073 52.2771L73.7853 31.102C73.9228 31.0085 74.0792 30.9604 74.241 30.9604C74.2922 30.9604 74.3408 30.9657 74.392 30.9738C74.6023 31.0138 74.7884 31.1314 74.9098 31.3105L79.0355 37.257C79.1569 37.4334 79.2027 37.6446 79.1622 37.8557Z" fill="#D8D8D8"/>
<path d="M60.6798 46.5095C60.4209 46.5095 60.1702 46.3866 60.0111 46.1621C59.7576 45.7959 59.852 45.2988 60.2187 45.0476L74.0737 35.6079C74.4431 35.3567 74.9447 35.4503 75.1981 35.8137C75.4516 36.1799 75.3572 36.677 74.9905 36.9282L61.1355 46.3679C60.9953 46.4641 60.8362 46.5095 60.6771 46.5095H60.6798Z" fill="#D8D8D8"/>
<path d="M45.5709 56.802C45.3121 56.802 45.0613 56.6817 44.9022 56.4546C44.6487 56.0884 44.7431 55.5913 45.1098 55.3401L54.9658 48.6265C55.3352 48.3753 55.8368 48.4688 56.0902 48.8323C56.3437 49.1984 56.2493 49.6955 55.8826 49.9468L46.0266 56.6604C45.8864 56.7566 45.7273 56.802 45.5682 56.802H45.5709Z" fill="#D8D8D8"/>
<path opacity="0.16" d="M99.8798 54.6615V67.8081L39.7275 108.79H38.1284V57.0749C38.1284 56.372 38.2821 55.7038 38.5572 55.0998C38.6569 54.886 38.7702 54.6802 38.8969 54.4825C39.59 53.4134 40.7009 52.633 42.0007 52.3684H42.0034C42.2326 52.323 42.4672 52.2909 42.7072 52.2775C42.7962 52.2722 42.8879 52.2695 42.9795 52.2695H98.2214L99.8798 54.6615Z" fill="black"/>
<path d="M120.652 55.4785H44.5976C42.3666 55.4785 40.5581 57.271 40.5581 59.4821V105.194C40.5581 107.405 42.3666 109.198 44.5976 109.198H120.652C122.883 109.198 124.691 107.405 124.691 105.194V59.4821C124.691 57.271 122.883 55.4785 120.652 55.4785Z" fill="white"/>
<path d="M120.649 110H44.5975C41.9225 110 39.749 107.843 39.749 105.195V59.485C39.749 56.8338 41.9252 54.6797 44.5975 54.6797H120.649C123.324 54.6797 125.497 56.8365 125.497 59.485V105.195C125.497 107.846 123.321 110 120.649 110ZM44.5975 56.2806C42.815 56.2806 41.367 57.7184 41.367 59.4824V105.192C41.367 106.959 42.8177 108.394 44.5975 108.394H120.649C122.431 108.394 123.879 106.956 123.879 105.192V59.4824C123.879 57.7158 122.429 56.2806 120.649 56.2806H44.5975Z" fill="#D8D8D8"/>
<path fill-rule="evenodd" clip-rule="evenodd" d="M109.86 89.6885C107.854 89.6885 106.079 90.6773 105.006 92.19C103.933 90.6773 102.159 89.6885 100.152 89.6885C96.8761 89.6885 94.22 92.321 94.22 95.5682C94.22 98.8154 96.8761 101.448 100.152 101.448C102.159 101.448 103.933 100.459 105.006 98.9464C106.079 100.459 107.854 101.448 109.86 101.448C113.136 101.448 115.793 98.8154 115.793 95.5682C115.793 92.321 113.136 89.6885 109.86 89.6885Z" fill="#262626"/>
<path d="M109.86 102.249C108.018 102.249 106.268 101.498 105.006 100.202C104.151 101.082 103.067 101.718 101.873 102.03C101.439 102.143 100.999 101.886 100.883 101.458C100.77 101.031 101.029 100.592 101.46 100.478C102.622 100.173 103.647 99.4646 104.343 98.4838C104.494 98.27 104.742 98.1444 105.003 98.1444C105.265 98.1444 105.513 98.2727 105.664 98.4838C106.624 99.8361 108.191 100.643 109.857 100.643C112.683 100.643 114.981 98.3662 114.981 95.5653C114.981 93.0691 113.182 90.9631 110.701 90.5568C110.542 90.5301 110.402 90.4606 110.291 90.3617C110.165 90.4419 110.016 90.4874 109.855 90.4874C108.191 90.4874 106.624 91.2945 105.661 92.6495C105.51 92.8633 105.262 92.9889 105.001 92.9889C104.739 92.9889 104.491 92.8633 104.34 92.6495C103.38 91.2972 101.813 90.4874 100.147 90.4874C97.3209 90.4874 95.0235 92.7644 95.0235 95.5653C95.0235 97.5591 96.2073 99.3764 98.0409 100.197C98.4481 100.379 98.6288 100.854 98.4454 101.258C98.262 101.662 97.782 101.841 97.3749 101.659C94.9641 100.579 93.4055 98.1871 93.4055 95.5653C93.4055 91.8798 96.4284 88.8838 100.147 88.8838C101.989 88.8838 103.739 89.6348 105.001 90.931C106.263 89.6348 108.013 88.8838 109.855 88.8838C110.062 88.8838 110.251 88.9613 110.397 89.0896C110.558 88.9854 110.761 88.9399 110.966 88.9747C114.228 89.5119 116.599 92.2833 116.599 95.5653C116.599 99.2508 113.576 102.247 109.857 102.247L109.86 102.249Z" fill="#D8D8D8"/>
<path d="M74.2652 87.5499H44.6029C44.1553 87.5499 43.7939 87.1917 43.7939 86.7481C43.7939 86.3044 44.1553 85.9463 44.6029 85.9463H74.2652C74.7128 85.9463 75.0741 86.3044 75.0741 86.7481C75.0741 87.1917 74.7128 87.5499 74.2652 87.5499Z" fill="#D8D8D8"/>
<path d="M61.5913 93.6973H44.6029C44.1553 93.6973 43.7939 93.3392 43.7939 92.8955C43.7939 92.4519 44.1553 92.0938 44.6029 92.0938H61.5913C62.0389 92.0938 62.4003 92.4519 62.4003 92.8955C62.4003 93.3392 62.0389 93.6973 61.5913 93.6973Z" fill="#D8D8D8"/>
<path d="M124.691 66.9707H40.5581V78.4629H124.691V66.9707Z" fill="#262626"/>
<path d="M124.691 79.2647H40.558C40.1104 79.2647 39.749 78.9066 39.749 78.4629V66.9707C39.749 66.5271 40.1104 66.1689 40.558 66.1689H64.5278C64.9754 66.1689 65.3368 66.5271 65.3368 66.9707C65.3368 67.4144 64.9754 67.7725 64.5278 67.7725H41.367V77.6611H123.882V67.7725H75.8534C75.4058 67.7725 75.0444 67.4144 75.0444 66.9707C75.0444 66.5271 75.4058 66.1689 75.8534 66.1689H124.691C125.139 66.1689 125.5 66.5271 125.5 66.9707V78.4629C125.5 78.9066 125.139 79.2647 124.691 79.2647Z" fill="#D8D8D8"/>
</g>
<defs>
<clipPath id="clip0_1_9577">
<rect width="120" height="90" fill="white" transform="translate(5.5 20)"/>
</clipPath>
</defs>
</svg>
