<svg width="131" height="130" viewBox="0 0 131 130" fill="none" xmlns="http://www.w3.org/2000/svg">
<rect x="0.5" width="130" height="130" fill="white"/>
<g clip-path="url(#clip0_1_6947)">
<path d="M102.062 42.5088H99.25V64.6221C99.25 74.1318 91.5859 81.8662 82.1641 81.8662H43V90.3037C43 94.9619 46.7793 98.7412 51.4375 98.7412H92.6406L105.93 109.376C106.439 109.78 107.072 109.991 107.688 109.991C108.092 109.991 108.514 109.903 108.9 109.71C109.867 109.235 110.5 108.251 110.5 107.179V50.9463C110.5 46.2881 106.721 42.5088 102.062 42.5088Z" fill="#414141"/>
<path d="M82.375 20.0088H31.75C25.5449 20.0088 20.5 25.0537 20.5 31.2588V87.5088C20.5 88.5986 21.1328 89.583 22.1172 90.0576C22.4863 90.2334 22.9082 90.3213 23.3125 90.3213C23.9629 90.3213 24.5957 90.1104 25.1055 89.6709L41.207 76.2588H82.375C88.5801 76.2588 93.625 71.2139 93.625 65.0088V31.2588C93.625 25.0537 88.5801 20.0088 82.375 20.0088Z" fill="#262626"/>
<path d="M73.9375 36.8838H40.1875C38.6406 36.8838 37.375 38.1494 37.375 39.6963C37.375 41.2432 38.6406 42.5088 40.1875 42.5088H73.9375C75.4844 42.5088 76.75 41.2432 76.75 39.6963C76.75 38.1494 75.4844 36.8838 73.9375 36.8838Z" fill="#FAFAFA"/>
<path d="M62.6875 48.1338H40.1875C38.6406 48.1338 37.375 49.3994 37.375 50.9463C37.375 52.4932 38.6406 53.7588 40.1875 53.7588H62.6875C64.2344 53.7588 65.5 52.4932 65.5 50.9463C65.5 49.3994 64.2344 48.1338 62.6875 48.1338Z" fill="#FAFAFA"/>
</g>
<defs>
<clipPath id="clip0_1_6947">
<rect width="90" height="90" fill="white" transform="translate(20.5 20)"/>
</clipPath>
</defs>
</svg>
