<svg width="131" height="130" viewBox="0 0 131 130" fill="none" xmlns="http://www.w3.org/2000/svg">
<rect x="0.5" width="130" height="130" fill="white"/>
<g clip-path="url(#clip0_1_9954)">
<path d="M23.3261 115.232L98.8673 115.459C99.7412 115.462 100.451 114.762 100.451 113.899V62.4062C100.451 61.5443 99.7441 60.8457 98.8717 60.8457H25.2819C22.7416 60.8938 21.8987 62.5651 21.8604 63.8762V63.9608L21.7954 112.041C21.7954 112.041 21.8545 113.332 22.0788 113.953C22.3017 114.576 22.6058 115.209 22.6058 115.209L23.3276 115.23L23.3261 115.232Z" fill="white"/>
<path d="M98.873 115.751H98.8671L23.3259 115.523C23.3259 115.523 23.32 115.523 23.3171 115.523L22.5952 115.501C22.4845 115.499 22.3856 115.434 22.3369 115.335C22.3237 115.309 22.0255 114.682 21.7996 114.053C21.5649 113.397 21.503 112.111 21.5 112.057L21.5635 63.8774C21.6078 62.3723 22.6056 60.6062 25.2758 60.5566H25.4559H98.873C99.9063 60.5566 100.748 61.3879 100.748 62.4088V113.902C100.748 114.397 100.551 114.863 100.197 115.214C99.8428 115.563 99.3734 115.754 98.8745 115.754L98.873 115.751ZM23.3318 114.94L98.8686 115.167H98.873C99.2155 115.167 99.5373 115.036 99.7793 114.797C100.023 114.558 100.157 114.238 100.157 113.899V62.4059C100.157 61.7059 99.5815 61.1371 98.873 61.1371H25.2817C23.0351 61.1794 22.1923 62.5838 22.1554 63.8847V63.962L22.0904 112.041C22.0904 112.041 22.151 113.282 22.3561 113.855C22.5052 114.271 22.6941 114.696 22.796 114.921L23.3318 114.937V114.94Z" fill="#D8D8D8"/>
<path d="M94.0027 50.2786L62.6392 25.9287L24.0229 74.4829L55.3864 98.8328L94.0027 50.2786Z" fill="white"/>
<path d="M96.3572 49.9339L64.9937 25.584L26.3774 74.1382L57.7409 98.488L96.3572 49.9339Z" fill="#D8D8D8"/>
<path d="M55.3892 99.1235C55.3228 99.1235 55.2593 99.1016 55.2062 99.0608L23.8425 74.7115C23.7141 74.6124 23.692 74.4286 23.7923 74.3017L62.408 25.7461C62.4567 25.6849 62.5276 25.6455 62.6043 25.6367C62.6825 25.628 62.7608 25.6484 62.8213 25.6965L94.185 50.0458C94.3134 50.145 94.3355 50.3287 94.2352 50.4556L55.621 99.0112C55.5723 99.0725 55.5014 99.1118 55.4247 99.1206C55.4129 99.1206 55.4011 99.122 55.3892 99.122V99.1235ZM24.4403 74.433L55.3405 98.4205L93.5901 50.3243L62.6914 26.3368L24.4403 74.433Z" fill="#D8D8D8"/>
<path d="M56.5747 29.2756C56.5113 29.2756 56.4478 29.2551 56.3946 29.2143C56.2662 29.1166 56.2411 28.9328 56.3415 28.806L62.0613 21.4776C62.1085 21.4163 62.1794 21.3769 62.2576 21.3667C62.3359 21.3565 62.4141 21.3784 62.4761 21.4251L69.9008 27.0821C70.0292 27.1799 70.0543 27.3636 69.9539 27.4905C69.8535 27.6188 69.669 27.6422 69.5391 27.543L62.3491 22.0638L56.8094 29.1604C56.7519 29.2347 56.6633 29.2741 56.5762 29.2741L56.5747 29.2756Z" fill="#D8D8D8"/>
<path d="M42.9358 46.5632C42.8723 46.5632 42.8104 46.5442 42.7557 46.5034C42.6258 46.4056 42.6022 46.2219 42.7011 46.095L51.3908 34.915C51.4897 34.7867 51.6757 34.7633 51.8041 34.861C51.934 34.9588 51.9576 35.1425 51.8587 35.2694L43.169 46.4494C43.1115 46.5238 43.0229 46.5632 42.9343 46.5632H42.9358Z" fill="#D8D8D8"/>
<path d="M75.7386 45.4225L75.1865 44.9952L75.7386 45.4225ZM78.673 40.5908L79.2251 41.0181L78.673 40.5908Z" fill="#D8D8D8"/>
<path d="M36.4292 40.5663C36.2491 40.5663 36.072 40.4861 35.9554 40.3315C33.5198 37.1143 30.64 34.2515 27.3971 31.8233C27.1373 31.6293 27.0856 31.2633 27.2834 31.0066C27.4797 30.7499 27.8502 30.6989 28.11 30.8943C31.4401 33.3881 34.3981 36.3282 36.9001 39.6344C37.0949 39.8925 37.0418 40.2586 36.7805 40.4511C36.6742 40.5299 36.5502 40.5678 36.4277 40.5678L36.4292 40.5663Z" fill="#262626"/>
<path d="M49.9071 29.6576C49.6148 29.6576 49.361 29.4432 49.3226 29.1486C48.7986 25.1643 47.7137 21.2733 46.0944 17.585C45.9645 17.289 46.1018 16.9463 46.4014 16.8179C46.7011 16.6896 47.0479 16.8252 47.1778 17.1213C48.8399 20.9102 49.9558 24.9062 50.4946 28.9984C50.5359 29.3178 50.3086 29.6109 49.9853 29.6518C49.9602 29.6547 49.9337 29.6561 49.9086 29.6561L49.9071 29.6576Z" fill="#262626"/>
<path d="M70.5785 22.8876C70.5534 22.8876 70.5283 22.8861 70.5017 22.8832C70.1784 22.8424 69.9496 22.5492 69.9925 22.2298C70.5297 18.1361 71.6457 14.1402 73.3077 10.3527C73.4376 10.0567 73.7845 9.92104 74.0841 10.0494C74.3838 10.1777 74.5211 10.5204 74.3912 10.8165C72.7719 14.5048 71.687 18.3943 71.163 22.3801C71.1246 22.6747 70.8707 22.889 70.5785 22.889V22.8876Z" fill="#262626"/>
<path d="M89.3685 34.6579C89.2799 34.6579 89.1899 34.6375 89.1043 34.5952C88.8135 34.4508 88.6954 34.1008 88.8415 33.812C90.7147 30.1237 93.1015 26.714 95.9355 23.6791C96.157 23.4429 96.5304 23.4268 96.7695 23.6456C97.0086 23.8643 97.0249 24.2333 96.8035 24.4696C94.0447 27.4243 91.7213 30.7436 89.8969 34.3341C89.7936 34.5383 89.5855 34.6564 89.3685 34.6564V34.6579Z" fill="#262626"/>
<path d="M98.0539 44.711C97.9018 44.711 97.7498 44.6541 97.6347 44.5389C97.4044 44.3099 97.4059 43.9409 97.6376 43.7134C100.602 40.8039 103.961 38.3218 107.625 36.3354C107.911 36.1808 108.27 36.2844 108.426 36.5659C108.583 36.8488 108.478 37.2032 108.193 37.3578C104.627 39.2916 101.354 41.7096 98.4701 44.5418C98.355 44.6555 98.2044 44.711 98.0539 44.711Z" fill="#262626"/>
<path d="M21.7954 112.041L21.8589 63.961L21.9253 63.5264C21.9253 63.5264 22.3504 64.4874 23.9224 64.4043H95.1284C95.9402 64.4043 96.5986 65.0548 96.5986 65.8569V117.256C96.5986 118.058 95.9402 118.709 95.1284 118.709H28.5426C24.8155 118.709 21.7954 115.724 21.7954 112.043V112.041Z" fill="white"/>
<path d="M95.1282 119H28.5424C24.6588 119 21.5 115.88 21.5 112.042L21.5635 63.9623C21.5635 63.9477 21.5635 63.9331 21.5664 63.92L21.6328 63.4854C21.652 63.3571 21.7554 63.2565 21.8867 63.239C22.0181 63.2215 22.1436 63.2929 22.1967 63.411C22.21 63.4402 22.5775 64.1854 23.906 64.114C23.9119 64.114 23.9163 64.114 23.9222 64.114H95.1282C96.1009 64.114 96.8936 64.8957 96.8936 65.8582V117.258C96.8936 118.219 96.1024 119.002 95.1282 119.002V119ZM22.0904 112.041C22.0904 115.556 24.985 118.416 28.5424 118.416H95.1267C95.7747 118.416 96.3017 117.895 96.3017 117.255V65.8553C96.3017 65.2151 95.7747 64.6944 95.1267 64.6944H23.9296C23.0632 64.7382 22.5023 64.4932 22.1539 64.2277L22.0904 112.041Z" fill="#D8D8D8"/>
<path d="M93.6199 83.2712C93.4576 83.2712 93.3247 83.14 93.3247 82.9795V74.6755C93.3247 74.515 93.4576 74.3838 93.6199 74.3838C93.7823 74.3838 93.9151 74.515 93.9151 74.6755V82.9795C93.9151 83.14 93.7823 83.2712 93.6199 83.2712Z" fill="#D8D8D8"/>
<path d="M68.4616 116.008H64.367C64.2046 116.008 64.0718 115.877 64.0718 115.716C64.0718 115.556 64.2046 115.425 64.367 115.425H68.4616C68.624 115.425 68.7568 115.556 68.7568 115.716C68.7568 115.877 68.624 116.008 68.4616 116.008Z" fill="#D8D8D8"/>
<path d="M57.2155 116.008H38.4368C38.2744 116.008 38.1416 115.877 38.1416 115.716C38.1416 115.556 38.2744 115.425 38.4368 115.425H57.2155C57.3778 115.425 57.5107 115.556 57.5107 115.716C57.5107 115.877 57.3778 116.008 57.2155 116.008Z" fill="#D8D8D8"/>
<path d="M24.7181 89.2784C24.5557 89.2784 24.4229 89.1472 24.4229 88.9868V73.821C24.4229 73.6606 24.5557 73.5293 24.7181 73.5293C24.8804 73.5293 25.0133 73.6606 25.0133 73.821V88.9868C25.0133 89.1472 24.8804 89.2784 24.7181 89.2784Z" fill="#D8D8D8"/>
<path d="M24.5438 101.315C24.3814 101.315 24.2485 101.184 24.2485 101.023V95.5016C24.2485 95.3412 24.3814 95.21 24.5438 95.21C24.7061 95.21 24.839 95.3412 24.839 95.5016V101.023C24.839 101.184 24.7061 101.315 24.5438 101.315Z" fill="#D8D8D8"/>
<rect x="30.5" y="73" width="58" height="35" fill="#262626"/>
<path d="M101.094 86.4238H82.856L79.5466 89.6935C78.0484 91.1738 78.1045 93.5903 79.6706 95.0021L82.6833 97.7147H101.094V86.4238Z" fill="white"/>
<path d="M101.095 98.0065H82.6834C82.6096 98.0065 82.5388 97.9788 82.4841 97.9292L79.4715 95.2166C78.6537 94.4801 78.1902 93.4724 78.1637 92.3801C78.1386 91.2877 78.5548 90.2596 79.3371 89.4866L82.6465 86.2169C82.7011 86.1615 82.7764 86.1309 82.8546 86.1309H86.4238C86.5862 86.1309 86.719 86.2621 86.719 86.4225C86.719 86.583 86.5862 86.7142 86.4238 86.7142H82.9772L79.7549 89.8979C79.0877 90.5571 78.732 91.4336 78.7541 92.3655C78.7762 93.2974 79.1718 94.1564 79.8685 94.7849L82.7956 97.4217H100.796V86.7142H90.0727C89.9103 86.7142 89.7774 86.583 89.7774 86.4225C89.7774 86.2621 89.9103 86.1309 90.0727 86.1309H101.092C101.254 86.1309 101.387 86.2621 101.387 86.4225V97.7148C101.387 97.7921 101.356 97.8665 101.3 97.9205C101.244 97.9744 101.17 98.0065 101.092 98.0065H101.095Z" fill="#D8D8D8"/>
<path d="M88.2657 94.8128C86.8059 94.8128 85.6191 93.6402 85.6191 92.1979C85.6191 90.7556 86.8059 89.583 88.2657 89.583C89.7256 89.583 90.9124 90.7556 90.9124 92.1979C90.9124 93.6402 89.7256 94.8128 88.2657 94.8128ZM88.2657 90.1664C87.1321 90.1664 86.2096 91.0779 86.2096 92.1979C86.2096 93.3179 87.1321 94.2294 88.2657 94.2294C89.3994 94.2294 90.3219 93.3179 90.3219 92.1979C90.3219 91.0779 89.3994 90.1664 88.2657 90.1664Z" fill="#D8D8D8"/>
</g>
<defs>
<clipPath id="clip0_1_9954">
<rect width="87" height="109" fill="white" transform="translate(21.5 10)"/>
</clipPath>
</defs>
</svg>
