<svg width="131" height="130" viewBox="0 0 131 130" fill="none" xmlns="http://www.w3.org/2000/svg">
<rect x="0.5" width="130" height="130" fill="white"/>
<g clip-path="url(#clip0_1_7121)">
<path d="M115.614 86.2319C104.623 78.6256 96.0822 67.4649 91.6523 54.7944C88.299 45.2037 85.2767 34.755 77.3747 27.8441C73.0515 24.0631 67.6476 21.6291 62.0255 20.6234C59.2179 20.1211 56.5428 20.3165 53.744 20.2215C51.3656 20.1407 51.2354 17.8105 50.3109 16.0923C48.3506 12.4489 44.0625 10.6512 40.2542 12.5643C36.0556 14.6736 35.4907 19.6531 37.1437 23.6622C37.531 24.6013 37.2525 25.7072 36.4213 26.2849C29.3843 31.1764 24.1305 38.8935 22.6531 47.4067C20.8518 57.7862 25.0537 67.8131 28.4614 77.3844C32.9646 90.0333 33.3293 104.121 29.5628 117.006C28.2111 121.632 37.4658 119.008 39.5467 118.474C55.6501 114.346 94.5312 100.471 109.39 93.4405C112.836 91.81 118.746 88.3992 115.614 86.2316L115.614 86.2319Z" fill="#D8D8D8"/>
<path d="M81.2739 19.3174C91.4059 21.5514 98.4624 31.077 97.5189 41.6248C97.4405 42.4625 98.7122 42.6032 98.7896 41.742C99.78 30.7251 92.4782 20.4705 81.5467 18.0618C80.7184 17.8801 80.4512 19.1375 81.2739 19.3174Z" fill="#414141"/>
<path d="M95.0319 17.2008C98.8174 19.0256 101.643 22.7374 102.407 26.8896C102.564 27.7239 103.816 27.4934 103.664 26.6552C102.828 22.1062 99.7306 18.0395 95.5841 16.0423C94.8204 15.676 94.2718 16.8363 95.0319 17.2008Z" fill="#414141"/>
<path d="M112.766 107.011L104.359 103.389L103.817 98.2694C103.759 97.7384 103.123 97.5066 102.739 97.8742L97.6915 102.746C97.0791 103.339 97.9725 104.262 98.5762 103.674L102.685 99.7091L103.129 103.901C103.154 104.132 103.3 104.332 103.513 104.424L110.605 107.479L102.088 109.912C101.738 110.011 101.529 110.396 101.665 110.759L104.077 117.128L97.5835 114.086C96.829 113.722 96.2712 114.89 97.0447 115.251L104.965 118.961C105.486 119.203 106.033 118.688 105.832 118.149L103.107 110.956L112.689 108.219C113.266 108.055 113.318 107.248 112.766 107.01V107.011Z" fill="#414141"/>
<path d="M81.3991 101.974C88.5238 99.3206 96.2385 96.345 103.706 92.8137C105.446 91.9967 108.076 90.7612 109.566 88.9899C110.939 87.2818 110.888 85.5275 109.646 83.9136C107.659 81.2932 103.978 82.2122 95.6028 70.8698C93.0747 67.6208 90.4512 63.273 88.7702 59.7228C83.7071 48.955 81.9217 35.158 71.7184 26.2098C66.8056 21.8367 59.4347 18.6037 51.7043 18.4716L50.0892 18.4615C46.6351 18.4543 46.4838 18.7584 45.3472 15.8982C44.0021 12.4484 41.3904 10.5413 38.5115 10.0689C31.9472 9.26425 27.5458 15.6333 30.4631 22.7376C30.4631 22.7391 30.4647 22.7425 30.4647 22.7443C30.4695 22.7611 30.4762 22.7794 30.4829 22.7962C30.7306 23.4457 30.5411 24.1741 29.9772 24.6011C23.1215 29.3361 17.583 37.1023 15.9478 46.155C14.2563 55.8401 17.6732 65.0931 20.9876 74.2602C21.2779 75.0609 22.4755 74.6203 22.1885 73.8216C18.9609 64.8944 15.5686 55.751 17.2052 46.3808C18.7367 37.7737 23.9832 30.3421 30.7891 25.5936C31.7033 24.9039 32.1642 23.6062 31.6523 22.267C30.5229 19.5312 30.5811 16.5293 31.8003 14.435C33.0312 12.3482 35.5383 11.0031 38.3302 11.341C40.7662 11.7421 42.9991 13.3878 44.1598 16.3703C44.8046 18.0175 45.3862 19.4311 47.2585 19.6835C47.3865 19.7052 47.5729 19.6652 47.6511 19.7238C48.3759 19.7416 49.0578 19.7463 51.6846 19.7574C58.5087 19.8789 65.7906 22.6516 70.877 27.1776C80.7429 35.8281 82.6203 49.6293 87.6159 60.2737C89.1716 63.5618 91.1621 66.8885 93.5122 70.2002C102.565 82.9409 106.984 82.5219 108.635 84.6973C110.999 87.7797 106.542 90.0627 103.028 91.714C85.5887 99.9629 39.315 115.826 29.4071 117.797C26.8634 118.367 24.6669 117.908 24.2127 115.314C23.8537 113.561 24.9418 112.31 25.7278 108.919C26.9854 102.866 27.0577 92.0517 25.4319 84.9588C25.2423 84.1227 23.997 84.4226 24.1878 85.2468C25.8509 92.5868 25.6257 103.371 24.4774 108.651H24.484C24.3001 109.145 24.5971 108.615 23.6475 111.415C23.1315 112.935 22.6494 114.046 22.9589 115.554C23.4185 118.217 25.6006 119.97 29.6717 119.056C34.1139 118.17 50.4698 112.934 57.5998 110.512C57.5506 111.029 57.5685 111.556 57.7142 112.145C59.8007 120.589 74.4034 124.099 80.4941 117.735C84.5593 113.49 85.5641 106.766 81.3994 101.975L81.3991 101.974Z" fill="#414141"/>
<path d="M28.545 36.3722C24.3951 43.1027 23.0895 51.375 24.9624 59.0696C25.1629 59.8959 26.4024 59.5905 26.2031 58.765C24.4118 51.4034 25.661 43.4878 29.6295 37.0488C30.0768 36.3249 28.9835 35.6486 28.545 36.3724V36.3722Z" fill="#414141"/>
</g>
<defs>
<clipPath id="clip0_1_7121">
<rect width="101" height="111" fill="white" transform="translate(15.5 10)"/>
</clipPath>
</defs>
</svg>
