<svg width="24" height="24" viewBox="0 0 24 24" fill="none" xmlns="http://www.w3.org/2000/svg">
<rect width="24" height="24" fill="#E3E3E3"/>
<g clip-path="url(#clip0_0_1)">
<rect width="375" height="869" transform="translate(-20 -577)" fill="white"/>
<path d="M21.2488 21.5684C21.2488 22.7172 20.3156 23.6484 19.1645 23.6484H4.83523C3.68412 23.6484 2.75098 22.7172 2.75098 21.5684V2.43164C2.75098 1.28283 3.68412 0.351562 4.83523 0.351562H13.7557C14.1709 0.351562 14.569 0.516375 14.8622 0.809672L20.7921 6.74034C21.0846 7.0328 21.2488 7.42913 21.2488 7.84228V21.5684Z" fill="#F9F8F9"/>
<path d="M6.24129 23.6484H4.83504C3.68426 23.6484 2.75098 22.717 2.75098 21.5681V2.43187C2.75098 1.28297 3.68426 0.351562 4.83504 0.351562H6.24129C5.09051 0.351562 4.15723 1.28297 4.15723 2.43187V21.5681C4.15723 22.717 5.09051 23.6484 6.24129 23.6484Z" fill="#E3E0E4"/>
<path d="M21.249 7.84219V8.60344H15.8134C14.2609 8.60344 12.998 7.34016 12.998 5.78766V0.351562H13.756C14.1709 0.351562 14.5693 0.516563 14.8623 0.809531L20.7924 6.74016C21.0849 7.03266 21.249 7.42922 21.249 7.84219Z" fill="#E3E0E4"/>
<path d="M21.1088 7.19672H15.8134C15.0352 7.19672 14.4043 6.56578 14.4043 5.78719V0.492188C14.5735 0.568594 14.7287 0.675469 14.8623 0.809063L20.7924 6.73969C20.926 6.87328 21.0324 7.02797 21.1088 7.19672Z" fill="#DC4955"/>
<path d="M20.3906 20.5547H3.60938C2.57386 20.5547 1.73438 19.7152 1.73438 18.6797V11.8359C1.73438 10.8004 2.57386 9.96094 3.60938 9.96094H20.3906C21.4261 9.96094 22.2656 10.8004 22.2656 11.8359V18.6797C22.2656 19.7152 21.4261 20.5547 20.3906 20.5547Z" fill="#DC4955"/>
<path d="M4.78125 20.5547H3.60938C2.57391 20.5547 1.73438 19.7152 1.73438 18.6797V11.8359C1.73438 10.8005 2.57391 9.96094 3.60938 9.96094H4.78125C3.74578 9.96094 2.90625 10.8005 2.90625 11.8359V18.6797C2.90625 19.7152 3.74578 20.5547 4.78125 20.5547Z" fill="#C42430"/>
<path d="M21.6005 9.96825V7.84228C21.6005 7.33228 21.4017 6.8527 21.0409 6.49177L15.111 0.561141C14.7491 0.199266 14.2679 0 13.7558 0H4.83534C3.49223 0 2.39953 1.09083 2.39953 2.43164V6.66253C2.39953 6.85673 2.55694 7.01409 2.75109 7.01409C2.94525 7.01409 3.10266 6.85673 3.10266 6.66253V2.43164C3.10266 1.47853 3.87994 0.703125 4.83534 0.703125H13.7558C13.8563 0.703125 13.9561 0.715969 14.0527 0.740531V3.8783C14.0527 4.0725 14.2101 4.22986 14.4043 4.22986C14.5984 4.22986 14.7558 4.0725 14.7558 3.8783V1.20042L20.4002 6.84548H15.8133C15.2303 6.84548 14.7558 6.37097 14.7558 5.7877V5.51897C14.7558 5.32477 14.5984 5.16741 14.4043 5.16741C14.2101 5.16741 14.0527 5.32477 14.0527 5.51897V5.7877C14.0527 6.75867 14.8425 7.54861 15.8133 7.54861H20.8615C20.8852 7.64353 20.8973 7.74197 20.8973 7.84228V9.66825C20.7345 9.63014 20.565 9.60938 20.3906 9.60938H19.135C18.9408 9.60938 18.7834 9.76673 18.7834 9.96094C18.7834 10.1551 18.9408 10.3125 19.135 10.3125H20.3906C21.2306 10.3125 21.9141 10.9959 21.9141 11.8359V18.6797C21.9141 19.5197 21.2306 20.2031 20.3906 20.2031H11.7383C11.5442 20.2031 11.3868 20.3605 11.3868 20.5547C11.3868 20.7489 11.5442 20.9062 11.7383 20.9062H20.3906C20.565 20.9062 20.7345 20.8855 20.8973 20.8474V21.5684C20.8973 22.5215 20.1201 23.2969 19.1647 23.2969H4.83534C3.87994 23.2969 3.10266 22.5215 3.10266 21.5684V20.8474C3.26555 20.8855 3.43505 20.9062 3.60938 20.9062H10.0977C10.2919 20.9062 10.4493 20.7489 10.4493 20.5547C10.4493 20.3605 10.2919 20.2031 10.0977 20.2031H3.60938C2.76937 20.2031 2.08594 19.5197 2.08594 18.6797V11.8359C2.08594 10.9959 2.76937 10.3125 3.60938 10.3125H17.4944C17.6885 10.3125 17.8459 10.1551 17.8459 9.96094C17.8459 9.76673 17.6885 9.60938 17.4944 9.60938H3.60938C3.43505 9.60938 3.26555 9.63014 3.10266 9.66825V8.30316C3.10266 8.10895 2.94525 7.95159 2.75109 7.95159C2.55694 7.95159 2.39953 8.10895 2.39953 8.30316V9.96825C1.78823 10.3656 1.38281 11.0541 1.38281 11.8359V18.6797C1.38281 19.4615 1.78823 20.1501 2.39953 20.5474V21.5684C2.39953 22.9092 3.49223 24 4.83534 24H19.1647C20.5078 24 21.6005 22.9092 21.6005 21.5684V20.5474C22.2118 20.1501 22.6172 19.4615 22.6172 18.6797V11.8359C22.6172 11.0541 22.2118 10.3656 21.6005 9.96825Z" fill="black"/>
<path d="M18.0094 12.957C18.2036 12.957 18.361 12.7997 18.361 12.6055C18.361 12.4113 18.2036 12.2539 18.0094 12.2539H15.8596C15.6655 12.2539 15.5081 12.4113 15.5081 12.6055V17.9098C15.5081 18.104 15.6655 18.2613 15.8596 18.2613C16.0538 18.2613 16.2112 18.104 16.2112 17.9098V15.559H17.8387C18.0328 15.559 18.1902 15.4016 18.1902 15.2074C18.1902 15.0132 18.0328 14.8558 17.8387 14.8558H16.2112V12.957H18.0094Z" fill="black"/>
<path d="M10.3049 17.7663C10.2957 17.9818 10.4318 18.2084 10.6683 18.2021C10.7125 18.2019 11.7577 18.1979 12.1742 18.1906C12.8801 18.1783 13.5087 17.8583 13.9443 17.2898C14.3482 16.7627 14.5706 16.0411 14.5706 15.2578C14.5706 13.4968 13.5878 12.3135 12.125 12.3135H10.6564C10.4655 12.3097 10.2982 12.4797 10.3049 12.6705V17.7663ZM12.125 13.0167C13.4097 13.0167 13.8675 14.1743 13.8675 15.2578C13.8675 16.5531 13.1661 17.47 12.1619 17.4876C11.9002 17.4921 11.371 17.4954 11.0173 17.4973C11.0153 16.9174 11.0118 15.7738 11.0118 15.2521C11.0118 14.816 11.0097 13.6171 11.0087 13.0167H12.125V13.0167Z" fill="black"/>
<path d="M5.99053 12.2344C5.80153 12.2306 5.63573 12.3974 5.63896 12.586V17.9294C5.63896 18.1236 5.79637 18.2809 5.99053 18.2809C6.18468 18.2809 6.34209 18.1236 6.34209 17.9294V15.958C6.69051 15.956 7.21762 15.9533 7.47838 15.9533C8.51999 15.9533 9.3674 15.1192 9.3674 14.0939C9.3674 13.0686 8.51999 12.2344 7.47838 12.2344H5.99053V12.2344ZM8.66428 14.0939C8.66428 14.7207 8.12123 15.2502 7.47838 15.2502C7.21926 15.2502 6.6997 15.2529 6.35043 15.2549C6.34846 14.8969 6.34579 14.3582 6.34579 14.0939C6.34579 13.8716 6.34424 13.3095 6.34317 12.9376H7.47838C8.12118 12.9376 8.66428 13.4671 8.66428 14.0939Z" fill="black"/>
</g>
<defs>
<clipPath id="clip0_0_1">
<rect width="375" height="869" fill="white" transform="translate(-20 -577)"/>
</clipPath>
</defs>
</svg>
