<svg width="20" height="20" viewBox="0 0 20 20" fill="none" xmlns="http://www.w3.org/2000/svg">
<g clip-path="url(#clip0_1_6508)">
<circle cx="10" cy="10" r="10" transform="matrix(-1 0 0 1 20 0)" fill="#CBCBCB"/>
<path d="M10.0019 1C14.9723 1 19 5.02773 19 9.99807C19 14.9684 14.9723 18.9988 10.0019 18.9988C5.0316 18.9988 1.0012 14.9684 1.0012 9.99807C1.0012 5.02773 5.03026 1 10.0019 1Z" fill="white"/>
<path d="M14.2296 7.09961C14.9216 7.09961 15.4802 7.65824 15.4802 8.34886C15.4802 9.03948 14.9216 9.59811 14.2296 9.59811C13.5377 9.59811 12.9817 9.03948 12.9817 8.34886C12.9817 7.65824 13.5404 7.09961 14.2296 7.09961Z" fill="#CBCBCB"/>
<path d="M5.77017 7.09961C6.45946 7.09961 7.02075 7.65824 7.02075 8.34886C7.02075 9.03948 6.45946 9.59811 5.77017 9.59811C5.08088 9.59811 4.51959 9.03948 4.51959 8.34886C4.51959 7.65824 5.08088 7.09961 5.77017 7.09961Z" fill="#CBCBCB"/>
<path d="M4.95306 12.3591C7.84353 15.2163 12.1579 15.2163 15.0484 12.3591C15.2804 12.1311 15.3137 11.7698 15.1404 11.5765C14.9671 11.3859 14.6724 11.4059 14.4711 11.6032C11.9099 14.1363 8.08618 14.1363 5.52635 11.6032C5.32503 11.4045 5.03172 11.3859 4.85706 11.5765C4.68374 11.7698 4.72107 12.1311 4.95172 12.3591H4.95306Z" fill="#CBCBCB"/>
</g>
<defs>
<clipPath id="clip0_1_6508">
<rect width="20" height="20" fill="white" transform="matrix(-1 0 0 1 20 0)"/>
</clipPath>
</defs>
</svg>
