<svg width="10" height="10" viewBox="0 0 10 10" fill="none" xmlns="http://www.w3.org/2000/svg">
<path d="M1.91865 9.91712C2.10328 10.0632 2.33742 10.0114 2.61659 9.79929L4.99862 7.97046L7.38515 9.79929C7.66432 10.0114 7.89396 10.0632 8.08309 9.91712C8.2677 9.77099 8.30824 9.53061 8.19565 9.18653L7.25454 6.25475L9.65907 4.44478C9.9383 4.2374 10.0508 4.02058 9.97878 3.78491C9.90675 3.55866 9.69511 3.44554 9.34837 3.45024L6.399 3.46911L5.50294 0.523181C5.39488 0.17438 5.23276 0 4.99862 0C4.76898 0 4.60687 0.17438 4.4988 0.523181L3.60272 3.46911L0.653354 3.45024C0.306631 3.44554 0.094989 3.55866 0.0229431 3.78491C-0.0535984 4.02058 0.063481 4.2374 0.342654 4.44478L2.74718 6.25475L1.80609 9.18653C1.6935 9.53061 1.73404 9.77099 1.91865 9.91712Z" fill="#414141"/>
</svg>
