<svg width="20" height="21" viewBox="0 0 20 21" fill="none" xmlns="http://www.w3.org/2000/svg">
<path d="M17.5 5.48307C14.725 5.20807 11.9333 5.06641 9.15 5.06641C7.5 5.06641 5.85 5.14974 4.2 5.31641L2.5 5.48307" stroke="#262626" stroke-width="1.5" stroke-linecap="round" stroke-linejoin="round"/>
<path d="M7.08337 4.64199L7.26671 3.55033C7.40004 2.75866 7.50004 2.16699 8.90837 2.16699H11.0917C12.5 2.16699 12.6084 2.79199 12.7334 3.55866L12.9167 4.64199" stroke="#262626" stroke-width="1.5" stroke-linecap="round" stroke-linejoin="round"/>
<path d="M15.7083 8.11621L15.1666 16.5079C15.075 17.8162 15 18.8329 12.675 18.8329H7.32496C4.99996 18.8329 4.92496 17.8162 4.83329 16.5079L4.29163 8.11621" stroke="#262626" stroke-width="1.5" stroke-linecap="round" stroke-linejoin="round"/>
<path d="M8.60828 14.25H11.3833" stroke="#262626" stroke-width="1.5" stroke-linecap="round" stroke-linejoin="round"/>
<path d="M7.91663 10.917H12.0833" stroke="#262626" stroke-width="1.5" stroke-linecap="round" stroke-linejoin="round"/>
</svg>
