<svg width="26" height="26" viewBox="0 0 26 26" fill="none" xmlns="http://www.w3.org/2000/svg">
<path d="M23.5455 1H2.45455C1.65122 1 1 1.48842 1 2.09091V23.9091C1 24.5116 1.65122 25 2.45455 25H23.5455C24.3488 25 25 24.5116 25 23.9091V2.09091C25 1.48842 24.3488 1 23.5455 1Z" stroke="#757575" stroke-width="1.5" stroke-miterlimit="10"/>
<path d="M13 20.1998C17.2174 20.1998 20.6364 16.9763 20.6364 12.9998C20.6364 9.02335 17.2174 5.7998 13 5.7998C8.78255 5.7998 5.36364 9.02335 5.36364 12.9998C5.36364 16.9763 8.78255 20.1998 13 20.1998Z" stroke="#757575" stroke-width="1.5" stroke-miterlimit="10"/>
<path d="M5.36364 13.1099C7.45818 12.2253 10.0182 11.4367 12.6364 13.1099C15.6618 15.0367 18.9418 13.4801 20.6364 12.4241" stroke="#757575" stroke-width="1.5" stroke-miterlimit="10"/>
</svg>
