<svg width="24" height="24" viewBox="0 0 24 24" fill="none" xmlns="http://www.w3.org/2000/svg">
<path d="M21 1.5C21.3978 1.5 21.7794 1.65804 22.0607 1.93934C22.342 2.22064 22.5 2.60218 22.5 3V21C22.5 21.3978 22.342 21.7794 22.0607 22.0607C21.7794 22.342 21.3978 22.5 21 22.5H3C2.60218 22.5 2.22064 22.342 1.93934 22.0607C1.65804 21.7794 1.5 21.3978 1.5 21V3C1.5 2.60218 1.65804 2.22064 1.93934 1.93934C2.22064 1.65804 2.60218 1.5 3 1.5H21ZM21 3H3V14.625H3.1425C3.42 14.595 3.6825 14.4975 3.8925 14.34L3.9975 14.2575C4.54837 13.7661 5.2618 13.4962 6 13.5C6.7425 13.5 7.4625 13.7625 8.0025 14.25C8.265 14.4975 8.625 14.625 9 14.625C9.375 14.625 9.735 14.4975 9.9975 14.25C10.5491 13.7607 11.2627 13.4934 12 13.5C12.7425 13.5 13.4625 13.7625 14.0025 14.25C14.265 14.4975 14.625 14.625 15 14.625C15.375 14.625 15.735 14.4975 15.9975 14.25C16.5495 13.7613 17.2628 13.4941 18 13.5C18.7425 13.5 19.455 13.7625 20.0025 14.25C20.265 14.4975 20.625 14.625 21 14.625V16.125H20.8275C20.1497 16.0914 19.5039 15.8267 18.9975 15.375C18.7228 15.1309 18.3674 14.9973 18 15C17.625 15 17.265 15.1275 17.0025 15.375C16.4505 15.8637 15.7372 16.1309 15 16.125C14.2628 16.1309 13.5495 15.8637 12.9975 15.375C12.7228 15.1309 12.3674 14.9973 12 15C11.625 15 11.265 15.1275 11.0025 15.375C10.4505 15.8637 9.73721 16.1309 9 16.125C8.26279 16.1309 7.54948 15.8637 6.9975 15.375C6.72285 15.1309 6.36744 14.9973 6 15C5.625 15 5.265 15.1275 5.0025 15.375C4.45052 15.8637 3.73721 16.1309 3 16.125V18.375H3.1425C3.42 18.345 3.6825 18.2475 3.8925 18.09L3.9975 18.0075C4.54837 17.5161 5.2618 17.2462 6 17.25C6.7425 17.25 7.4625 17.5125 8.0025 18C8.265 18.2475 8.625 18.375 9 18.375C9.375 18.375 9.735 18.2475 9.9975 18C10.5491 17.5107 11.2627 17.2434 12 17.25C12.7425 17.25 13.4625 17.5125 14.0025 18C14.265 18.2475 14.625 18.375 15 18.375C15.375 18.375 15.735 18.2475 15.9975 18C16.5495 17.5113 17.2628 17.2441 18 17.25C18.7425 17.25 19.455 17.5125 20.0025 18C20.265 18.2475 20.625 18.375 21 18.375V19.875H20.8275C20.1497 19.8414 19.5039 19.5767 18.9975 19.125C18.7228 18.8809 18.3674 18.7473 18 18.75C17.625 18.75 17.265 18.8775 17.0025 19.125C16.4505 19.6137 15.7372 19.8809 15 19.875C14.2628 19.8809 13.5495 19.6137 12.9975 19.125C12.7228 18.8809 12.3674 18.7473 12 18.75C11.625 18.75 11.265 18.8775 11.0025 19.125C10.4505 19.6137 9.73721 19.8809 9 19.875C8.26279 19.8809 7.54948 19.6137 6.9975 19.125C6.72285 18.8809 6.36744 18.7473 6 18.75C5.625 18.75 5.265 18.8775 5.0025 19.125C4.45052 19.6137 3.73721 19.8809 3 19.875V21H21V3ZM16.5 5.25C17.0967 5.25 17.669 5.48705 18.091 5.90901C18.5129 6.33097 18.75 6.90326 18.75 7.5C18.75 8.09674 18.5129 8.66903 18.091 9.09099C17.669 9.51295 17.0967 9.75 16.5 9.75C15.9033 9.75 15.331 9.51295 14.909 9.09099C14.4871 8.66903 14.25 8.09674 14.25 7.5C14.25 6.90326 14.4871 6.33097 14.909 5.90901C15.331 5.48705 15.9033 5.25 16.5 5.25ZM16.5 6.75C16.3011 6.75 16.1103 6.82902 15.9697 6.96967C15.829 7.11032 15.75 7.30109 15.75 7.5C15.75 7.69891 15.829 7.88968 15.9697 8.03033C16.1103 8.17098 16.3011 8.25 16.5 8.25C16.6989 8.25 16.8897 8.17098 17.0303 8.03033C17.171 7.88968 17.25 7.69891 17.25 7.5C17.25 7.30109 17.171 7.11032 17.0303 6.96967C16.8897 6.82902 16.6989 6.75 16.5 6.75Z" fill="#757575"/>
</svg>
