<svg width="24" height="24" viewBox="0 0 24 24" fill="none" xmlns="http://www.w3.org/2000/svg">
<path d="M12 15.2476C12.73 15.2476 13.4301 15.5376 13.9463 16.0537C14.4625 16.5699 14.7525 17.2701 14.7525 18.0001C14.7525 18.7301 14.4625 19.4302 13.9463 19.9464C13.4301 20.4626 12.73 20.7526 12 20.7526C11.27 20.7526 10.5699 20.4626 10.0537 19.9464C9.53749 19.4302 9.2475 18.7301 9.2475 18.0001C9.2475 17.2701 9.53749 16.5699 10.0537 16.0537C10.5699 15.5376 11.27 15.2476 12 15.2476ZM12 16.7476C11.6678 16.7476 11.3492 16.8795 11.1143 17.1144C10.8795 17.3493 10.7475 17.6679 10.7475 18.0001C10.7475 18.3322 10.8795 18.6508 11.1143 18.8857C11.3492 19.1206 11.6678 19.2526 12 19.2526C12.3322 19.2526 12.6508 19.1206 12.8857 18.8857C13.1205 18.6508 13.2525 18.3322 13.2525 18.0001C13.2525 17.6679 13.1205 17.3493 12.8857 17.1144C12.6508 16.8795 12.3322 16.7476 12 16.7476ZM12 11.2501C13.2511 11.2504 14.4775 11.5984 15.5423 12.2553C16.6071 12.9122 17.4684 13.8521 18.03 14.9701L16.8975 16.1026C16.5156 15.1138 15.8434 14.2637 14.9693 13.6642C14.0951 13.0647 13.06 12.7439 12 12.7439C10.94 12.7439 9.90488 13.0647 9.03072 13.6642C8.15657 14.2637 7.48435 15.1138 7.1025 16.1026L5.97 14.9701C6.53161 13.8521 7.39289 12.9122 8.45768 12.2553C9.52248 11.5984 10.7489 11.2504 12 11.2501ZM12 7.25256C15.735 7.25256 19.0275 9.15756 20.955 12.0526L19.8675 13.1326C19.0389 11.7912 17.8811 10.6839 16.5041 9.91601C15.1271 9.14808 13.5767 8.74497 12 8.74497C10.4233 8.74497 8.87287 9.14808 7.49588 9.91601C6.11888 10.6839 4.96109 11.7912 4.1325 13.1326L3.045 12.0451C4.02552 10.568 5.35644 9.35669 6.91899 8.51914C8.48155 7.68159 10.2271 7.24388 12 7.24506V7.25256ZM12 3.24756C16.8375 3.24756 21.135 5.57256 23.82 9.17256L22.7475 10.2526C21.5225 8.54613 19.9088 7.1559 18.0399 6.19692C16.171 5.23793 14.1006 4.73775 12 4.73775C9.89941 4.73775 7.82901 5.23793 5.96009 6.19692C4.09118 7.1559 2.47748 8.54613 1.2525 10.2526L0.18 9.18006C2.865 5.58006 7.155 3.25506 12 3.25506V3.24756Z" fill="#757575"/>
</svg>
