<svg width="30" height="30" viewBox="0 0 30 30" fill="none" xmlns="http://www.w3.org/2000/svg">
<g clip-path="url(#clip0_1_16386)">
<g clip-path="url(#clip1_1_16386)">
<path d="M28.6887 16.8847L28.125 16.7681V13.5938C28.1246 13.2209 27.9763 12.8635 27.7127 12.5998C27.449 12.3362 27.0916 12.1879 26.7188 12.1875H23.9092L23.4925 8.4375H23.9063C24.0306 8.4375 24.1498 8.38811 24.2377 8.30021C24.3256 8.2123 24.375 8.09307 24.375 7.96875C24.3743 7.34736 24.1272 6.75163 23.6878 6.31224C23.2484 5.87285 22.6526 5.6257 22.0313 5.625H16.4063V4.6875H17.3438C17.4681 4.6875 17.5873 4.63811 17.6752 4.55021C17.7631 4.4623 17.8125 4.34307 17.8125 4.21875V2.34375C17.8125 2.21943 17.7631 2.1002 17.6752 2.01229C17.5873 1.92439 17.4681 1.875 17.3438 1.875H15.4688V1.40625C15.4688 1.28193 15.4194 1.1627 15.3315 1.07479C15.2436 0.986886 15.1243 0.9375 15 0.9375C14.8757 0.9375 14.7565 0.986886 14.6686 1.07479C14.5806 1.1627 14.5313 1.28193 14.5313 1.40625V1.875H12.6563C12.5319 1.875 12.4127 1.92439 12.3248 2.01229C12.2369 2.1002 12.1875 2.21943 12.1875 2.34375V4.21875C12.1875 4.34307 12.2369 4.4623 12.3248 4.55021C12.4127 4.63811 12.5319 4.6875 12.6563 4.6875H13.5938V5.625H7.96876C7.34737 5.6257 6.75164 5.87285 6.31225 6.31224C5.87286 6.75163 5.62571 7.34736 5.62501 7.96875C5.62501 8.09307 5.6744 8.2123 5.7623 8.30021C5.85021 8.38811 5.96944 8.4375 6.09376 8.4375H6.50755L6.09077 12.1875H3.28126C2.90843 12.1879 2.55099 12.3362 2.28735 12.5998C2.02372 12.8635 1.87543 13.2209 1.87501 13.5938V16.7681L1.31128 16.8847C1.24587 16.8983 1.18411 16.9256 1.13013 16.965C1.07616 17.0043 1.03121 17.0547 0.998311 17.1129C0.96541 17.171 0.945311 17.2355 0.939363 17.302C0.933414 17.3685 0.941752 17.4356 0.963819 17.4986L4.24507 26.8736C4.25171 26.8924 4.25954 26.9107 4.26851 26.9284L4.68751 27.7669C4.88099 28.1572 5.17994 28.4854 5.55046 28.7144C5.92098 28.9434 6.34825 29.064 6.78382 29.0625H23.2162C23.6518 29.064 24.079 28.9434 24.4496 28.7144C24.8201 28.4854 25.119 28.1572 25.3125 27.7669L25.7317 26.9284C25.7407 26.9107 25.7485 26.8924 25.7552 26.8736L29.0364 17.4986C29.0585 17.4356 29.0668 17.3685 29.0609 17.302C29.0549 17.2355 29.0348 17.171 29.0019 17.1129C28.969 17.0547 28.9241 17.0043 28.8701 16.965C28.8161 16.9256 28.7544 16.8983 28.689 16.8847H28.6887ZM2.0256 17.6943L14.5313 15.1069V16.0273L2.35548 18.6364L2.0256 17.6943ZM23.3654 15.7834L20.625 15.2164V13.125H23.0701L23.3654 15.7834ZM19.6875 15.0224L15.4688 14.1493V13.125H19.6875V15.0224ZM14.5313 14.1493L10.3125 15.0224V13.125H14.5313V14.1493ZM9.37501 15.2162L6.63452 15.7832L6.92989 13.125H9.37501V15.2162ZM14.5313 16.9857V23.4761L4.35897 24.3609L2.66749 19.5283L14.5313 16.9857ZM15.4688 16.9857L27.3325 19.5279L25.641 24.3606L15.4688 23.4765V16.9857ZM15.4688 16.0269V15.1069L27.9744 17.6943L27.6447 18.6364L15.4688 16.0269ZM27.1875 13.5938V16.5741L24.375 15.9922V13.125H26.7188C26.843 13.1251 26.9622 13.1746 27.0501 13.2624C27.1379 13.3503 27.1874 13.4695 27.1875 13.5938ZM13.125 2.8125H16.875V3.75H13.125V2.8125ZM14.5313 4.6875H15.4688V5.625H14.5313V4.6875ZM7.96876 6.5625H22.0313C22.322 6.56284 22.6055 6.65313 22.8429 6.82098C23.0803 6.98882 23.2599 7.22601 23.3572 7.5H6.64284C6.74009 7.22601 6.91973 6.98882 7.15712 6.82098C7.39452 6.65313 7.67802 6.56284 7.96876 6.5625ZM7.45079 8.4375H22.5492L22.9659 12.1875H7.03431L7.45079 8.4375ZM2.81251 13.5938C2.81265 13.4695 2.86208 13.3503 2.94996 13.2624C3.03784 13.1746 3.15698 13.1251 3.28126 13.125H5.62501V15.9922L2.81251 16.5741V13.5938ZM4.6786 25.2743L15 24.3768L25.3214 25.2743L24.9799 26.25H5.02009L4.6786 25.2743ZM23.2162 28.125H6.78382C6.52247 28.1259 6.2661 28.0535 6.04379 27.9161C5.82147 27.7787 5.64211 27.5817 5.52605 27.3476L5.44595 27.1875H24.5541L24.474 27.3476C24.3579 27.5817 24.1785 27.7787 23.9562 27.9161C23.7339 28.0535 23.4776 28.1259 23.2162 28.125Z" fill="#262626"/>
<path d="M4.70148 23.0824C4.72952 23.195 4.79833 23.2931 4.89458 23.3578C4.99083 23.4226 5.10768 23.4493 5.22249 23.4328L8.50374 22.9641C8.61545 22.9481 8.71766 22.8924 8.79159 22.8071C8.86553 22.7219 8.90623 22.6128 8.90622 22.5V20.1562C8.90622 20.085 8.88999 20.0147 8.85875 19.9507C8.82751 19.8867 8.78209 19.8306 8.72595 19.7868C8.6698 19.7429 8.60441 19.7125 8.53472 19.6977C8.46504 19.6829 8.39291 19.6842 8.3238 19.7015L4.5738 20.639C4.45321 20.6691 4.34953 20.746 4.28557 20.8525C4.22161 20.9591 4.2026 21.0868 4.23273 21.2073L4.70148 23.0824ZM7.96872 20.7566V22.0935L5.50843 22.445L5.25583 21.4348L7.96872 20.7566Z" fill="#262626"/>
<path d="M25.7672 21.2074C25.7974 21.0868 25.7784 20.9592 25.7144 20.8526C25.6504 20.746 25.5468 20.6692 25.4262 20.6391L21.6762 19.7016C21.6071 19.6843 21.5349 19.683 21.4653 19.6978C21.3956 19.7125 21.3302 19.743 21.274 19.7868C21.2179 19.8307 21.1725 19.8867 21.1412 19.9507C21.11 20.0147 21.0938 20.085 21.0938 20.1562V22.5C21.0937 22.6128 21.1344 22.7219 21.2084 22.8071C21.2823 22.8924 21.3845 22.9481 21.4962 22.9641L24.7775 23.4328C24.8923 23.4493 25.0091 23.4226 25.1054 23.3578C25.2016 23.2931 25.2704 23.195 25.2985 23.0824L25.7672 21.2074ZM24.4915 22.4449L22.0312 22.0933V20.7566L24.7441 21.4348L24.4915 22.4449Z" fill="#262626"/>
</g>
</g>
<defs>
<clipPath id="clip0_1_16386">
<rect width="30" height="30" fill="white"/>
</clipPath>
<clipPath id="clip1_1_16386">
<rect width="30" height="30" fill="white"/>
</clipPath>
</defs>
</svg>
